<svg width="44" height="44" viewBox="0 0 44 44" fill="none" xmlns="http://www.w3.org/2000/svg">
<path d="M8.73535 0.961944L8.72619 0.962296C7.10648 1.02456 5.49473 1.70715 4.08945 2.82019L4.08925 2.82035C2.41263 4.14967 1.1803 5.8274 0.683556 7.98405M8.73535 0.961944L15.5498 20.7143M8.73535 0.961944L8.74452 0.961928M8.73535 0.961944L8.74452 0.961928M0.683556 7.98405L1.1708 8.09628M0.683556 7.98405L1.1708 8.09628M0.683556 7.98405C0.237268 9.92086 0.562159 11.7342 2.15838 13.1778L2.15843 13.1778C2.4275 13.4211 2.67298 13.6746 2.93127 13.9414C3.05303 14.0672 3.17763 14.1959 3.30889 14.3278C3.83738 14.8595 4.36575 15.3917 4.89423 15.924C6.17223 17.2114 7.45096 18.4994 8.73406 19.782C8.79481 19.8428 8.85654 19.9054 8.91949 19.9693C9.47021 20.5281 10.1144 21.1818 11.0191 21.501L11.0193 21.5011C12.6816 22.0868 14.2577 21.7998 15.7436 21.1752M1.1708 8.09628C0.755686 9.89779 1.06078 11.511 2.49376 12.8069L4.39989 3.21214C2.79345 4.48583 1.63721 6.07135 1.1708 8.09628ZM15.7436 21.1752L15.5498 20.7143M15.7436 21.1752C15.7435 21.1753 15.7434 21.1753 15.7434 21.1753L15.5498 20.7143M15.7436 21.1752C15.8721 21.1213 16.1714 20.9662 16.1972 20.6077C16.2087 20.4475 16.155 20.318 16.1068 20.2349C16.0587 20.152 15.9988 20.0847 15.948 20.0341M15.5498 20.7143C15.7476 20.6313 15.7334 20.526 15.5951 20.3883M15.948 20.0341L15.5951 20.3883M15.948 20.0341C15.1361 19.225 14.3269 18.413 13.5195 17.5989M15.948 20.0341C15.9479 20.0341 15.9478 20.034 15.9478 20.0339L15.5951 20.3883M15.5951 20.3883L13.5195 17.5989M13.5195 17.5989C13.2599 17.3368 12.9516 17.2958 12.7185 17.3027L12.7178 17.3027C12.6562 17.3046 12.5982 17.2906 12.4935 17.1851L12.4934 17.1849C10.0384 14.7117 7.58122 12.2404 5.12065 9.77308C5.04837 9.70051 5.02102 9.63737 5.01931 9.51743L5.0193 9.51676C5.00982 8.90723 5.22017 8.34845 5.57305 7.79665L5.15182 7.52727L5.57305 7.79665C6.29943 6.66077 7.24335 5.86238 8.51972 5.53737L8.39643 5.05281L8.5198 5.53735C8.75049 5.47866 8.92332 5.46618 9.06633 5.49364C9.19845 5.519 9.34258 5.58548 9.50661 5.75559L9.50675 5.75573C10.7169 7.00969 11.9532 8.24152 13.1856 9.4694C13.6665 9.94862 14.1469 10.4272 14.6248 10.9063L14.6251 10.9066C14.8615 11.1433 15.0983 11.3809 15.3354 11.6189C15.7812 12.0663 16.2281 12.5149 16.6762 12.9604L16.6766 12.9608C16.7523 13.0359 16.7906 13.0827 16.811 13.1179C16.825 13.1422 16.8245 13.15 16.8241 13.1556C16.8241 13.1559 16.824 13.1561 16.824 13.1564L13.5195 17.5989ZM8.74452 0.961928C9.56 0.960501 10.2559 1.06727 10.8817 1.31401C11.5103 1.56182 12.0405 1.9399 12.5385 2.4434L12.5389 2.44374M8.74452 0.961928L12.5389 2.44374M12.5389 2.44374C12.7114 2.61852 12.8845 2.7914 13.0588 2.96559C13.1466 3.05331 13.2347 3.14136 13.3233 3.23015C13.9375 3.84553 14.5515 4.46102 15.1655 5.07647C16.7439 6.65878 18.3221 8.24082 19.9035 9.81987M12.5389 2.44374L19.9035 9.81987M20.4901 16.5469C20.5957 16.4495 20.6575 16.3289 20.6967 16.2353C21.2559 14.9037 21.5491 13.4867 21.1672 11.9732L20.4901 16.5469ZM20.4901 16.5469C20.3628 16.6642 20.1857 16.733 19.9904 16.7037M20.4901 16.5469L19.9904 16.7037M19.9904 16.7037C19.8325 16.6801 19.7191 16.5992 19.665 16.5569M19.9904 16.7037L19.665 16.5569M19.665 16.5569C19.6056 16.5105 19.5522 16.4569 19.5197 16.4242L19.665 16.5569ZM19.9035 9.81987C20.5016 10.4164 20.9516 11.1184 21.1672 11.9732L19.9035 9.81987ZM19.5194 16.4239C19.5194 16.4239 19.5194 16.4239 19.5193 16.4238C18.7654 15.6678 18.0102 14.914 17.2523 14.1622L19.5194 16.4239Z" fill="#02A653" stroke="#02A653"/>
<path d="M34.6449 43.1678L34.6449 43.1676C36.1315 43.1318 37.7582 42.4012 39.1625 41.2776L39.1625 41.2776C40.8158 39.9547 42.0112 38.2813 42.5182 36.162L34.6449 43.1678ZM34.6449 43.1678L34.6335 43.1678M34.6449 43.1678L34.6335 43.1678M34.6335 43.1678C32.9611 43.1699 31.9079 42.8295 30.9693 42.0028L30.9686 42.0022C30.7393 41.7993 30.5126 41.5637 30.304 41.3469C30.2038 41.2428 30.1077 41.1429 30.0176 41.0532L30.0175 41.053C29.5065 40.5438 28.9943 40.0344 28.482 39.5247C27.8232 38.8693 27.1641 38.2137 26.5067 37.5578L26.5066 37.5577C26.0215 37.0736 25.5405 36.5914 25.0599 36.1098C24.5115 35.56 23.9636 35.0108 23.4107 34.4598L23.4106 34.4597C22.8522 33.9027 22.3381 33.2548 22.0839 32.4043M34.6335 43.1678L22.0839 32.4043M30.4271 26.3367C30.666 26.3232 30.8544 26.4319 31.0231 26.6006M30.4271 26.3367L31.2998 41.6276C31.0848 41.4374 30.8852 41.2297 30.6855 41.022C30.5812 40.9135 30.4769 40.8049 30.3704 40.6989C29.8586 40.1888 29.3464 39.6793 28.8342 39.1698C28.1758 38.5149 27.5174 37.8599 26.8598 37.2038C26.3776 36.7225 25.8964 36.2402 25.4152 35.7579C24.8652 35.2066 24.3152 34.6554 23.7637 34.1057C23.2318 33.5752 22.783 32.9974 22.5629 32.261M30.4271 26.3367C30.2165 26.3482 30.068 26.2591 29.9249 26.1146M30.4271 26.3367L38.1399 35.0839M31.0231 26.6006C31.2124 26.7903 31.4017 26.9799 31.591 27.1696C33.8646 29.4477 36.1383 31.7258 38.4188 33.997C38.7728 34.349 38.7017 34.7651 38.6338 35.1623L38.6328 35.1681M31.0231 26.6006L30.6692 26.9538C30.6693 26.954 30.6694 26.9541 30.6695 26.9542M31.0231 26.6006L30.6695 26.9542M38.6328 35.1681C38.3135 37.0358 36.2393 38.9642 34.3548 39.1734C34.0119 39.2112 33.7223 39.1242 33.4679 38.869C31.3969 36.79 29.3215 34.7149 27.2463 32.64C26.8799 32.2736 26.5135 31.9072 26.1471 31.5408C25.9824 31.3761 25.8501 31.1952 25.8649 30.9515C25.8791 30.716 25.7738 30.5533 25.6125 30.394C24.9466 29.7374 24.2867 29.0748 23.6268 28.4123C23.5168 28.3018 23.4067 28.1913 23.2966 28.0808C23.2878 28.0719 23.2789 28.0629 23.2702 28.0539C23.1627 27.9435 23.0655 27.8436 22.9618 28.0889C22.3935 29.4382 22.1296 30.8132 22.5629 32.261M38.6328 35.1681L38.1399 35.0839M38.6328 35.1681L38.1399 35.0839M22.5629 32.261L22.0839 32.4043M22.5629 32.261L22.0839 32.4041C22.0839 32.4042 22.0839 32.4043 22.0839 32.4043M22.0839 32.4043C21.6053 30.8052 21.9072 29.3049 22.5011 27.8949L22.5013 27.8944C22.5402 27.8022 22.6065 27.6718 22.7278 27.5724C22.8836 27.4446 23.083 27.4063 23.2691 27.4615C23.4098 27.5032 23.507 27.5889 23.546 27.6242C23.5791 27.6542 23.6202 27.6965 23.6407 27.7175C23.6451 27.7221 23.6486 27.7257 23.6508 27.7279C23.761 27.8385 23.8711 27.949 23.9811 28.0595C24.6411 28.7222 25.2994 29.383 25.9636 30.038L25.9638 30.0382C26.173 30.2448 26.3906 30.5399 26.364 30.9816L26.364 30.9819C26.363 30.9984 26.3649 31.0127 26.379 31.0388C26.3972 31.0727 26.4324 31.119 26.5006 31.1872C26.8671 31.5537 27.2336 31.9201 27.6001 32.2866C29.6751 34.3614 31.7507 36.4367 33.8219 38.5159C33.9601 38.6545 34.0952 38.699 34.2997 38.6765C35.1057 38.5869 35.9996 38.1184 36.7395 37.4273C37.4796 36.7359 38.0039 35.8794 38.1399 35.0839L22.0839 32.4043ZM38.1399 35.0839C38.2144 34.6479 38.2147 34.4992 38.0663 34.3516L38.066 34.3513C35.7848 32.0795 33.5106 29.8008 31.237 27.5228C31.0479 27.3332 30.8587 27.1437 30.6695 26.9542M29.9249 26.1146L29.5698 26.4666M29.9249 26.1146C29.1568 25.3398 28.3873 24.5669 27.6077 23.8035L32.0634 22.5187C31.8201 22.4994 31.6062 22.4693 31.3777 22.4371C31.206 22.413 31.0261 22.3876 30.8192 22.3648C30.3785 22.3163 29.8981 22.2936 29.3976 22.3915L29.3974 22.3915C28.7621 22.5161 28.1175 22.677 27.4894 22.9382L27.4893 22.9382C27.4093 22.9715 27.3122 23.0184 27.2252 23.0877C27.1354 23.1592 27.0223 23.2825 26.9854 23.4698C26.9484 23.6575 27.0064 23.8152 27.0636 23.9169C27.119 24.0154 27.1929 24.0971 27.2578 24.1606L27.2579 24.1608C28.0347 24.9214 28.802 25.6921 29.5698 26.4666M29.9249 26.1146L29.5697 26.4665C29.5697 26.4666 29.5698 26.4666 29.5698 26.4666M29.5698 26.4666C29.7698 26.6684 30.049 26.858 30.4543 26.836L30.4553 26.8359C30.4867 26.8341 30.5104 26.8394 30.5369 26.852C30.568 26.8667 30.6115 26.8962 30.6695 26.9542M33.976 23.8928L33.976 23.8927C33.6064 23.5232 33.1716 23.0997 32.5944 22.8346C32.5927 22.8333 32.5906 22.8316 32.588 22.8295C32.5716 22.816 32.5528 22.7983 32.5211 22.7679C32.5192 22.7661 32.5171 22.7641 32.515 22.762C32.4898 22.7377 32.4468 22.6963 32.4032 22.6615C32.3781 22.6415 32.3403 22.6133 32.293 22.5878C32.2483 22.5636 32.1684 22.5271 32.0637 22.5187L33.976 23.8928ZM33.976 23.8928C35.5778 25.495 37.1811 27.0959 38.7846 28.6969M33.976 23.8928L38.7846 28.6969M38.7846 28.6969C39.4973 29.4085 40.21 30.1201 40.9226 30.832L38.7846 28.6969ZM40.9227 30.832C41.4401 31.3488 42.0369 31.9472 42.3482 32.7863L40.9227 30.832ZM42.3482 32.7863C42.764 33.9067 42.7875 35.0374 42.5183 36.1619L42.3482 32.7863Z" fill="#02A653" stroke="#02A653"/>
<path d="M21.5268 24.6927C21.3638 24.7425 21.1931 24.8451 21.0908 25.0441C20.9348 25.3475 21.0533 25.645 21.1749 25.8202L21.1753 25.8208C21.2563 25.9371 21.3718 26.0476 21.4328 26.1059C21.4451 26.1176 21.4551 26.1272 21.4622 26.1343C21.9815 26.654 22.5018 27.1688 23.021 27.6824C24.2508 28.8992 25.4739 30.1092 26.6595 31.3611C27.2038 31.9358 27.8134 32.2073 28.4313 32.2349C29.0354 32.2618 29.5928 32.0535 30.0494 31.7703L21.5268 24.6927ZM21.5268 24.6927C21.5078 24.647 21.4883 24.6015 21.468 24.5558L21.4671 24.5538C21.4133 24.4309 21.3451 24.2265 21.4043 23.9988C21.4586 23.7898 21.594 23.6511 21.7394 23.5635C21.7145 23.4475 21.6958 23.3223 21.7025 23.2025C21.7117 23.0388 21.7757 22.8155 21.9969 22.6742C22.1696 22.5639 22.3584 22.5623 22.4463 22.5636C22.5358 22.5648 22.6411 22.575 22.734 22.584C22.7476 22.5853 22.7608 22.5866 22.7738 22.5879L22.7749 22.588C22.8149 22.5919 22.8525 22.5987 22.8805 22.6046C22.8801 22.6036 22.8796 22.6026 22.8792 22.6016C22.8783 22.5998 22.8772 22.5974 22.8759 22.5945C22.8664 22.5743 22.8449 22.5282 22.8286 22.4838C22.7897 22.3779 22.713 22.1005 22.9204 21.8435L22.9205 21.8435C23.1128 21.6052 23.3759 21.5815 23.5426 21.6041C23.6608 21.6201 23.8002 21.6736 23.8143 21.679C23.8149 21.6792 23.8153 21.6794 23.8154 21.6794C23.8154 21.6794 23.8154 21.6794 23.8154 21.6794L21.5268 24.6927ZM21.7615 23.6323C21.7593 23.6432 21.759 23.6508 21.7591 23.654C21.7592 23.6552 21.7592 23.6558 21.7592 23.6558L21.7615 23.6323ZM21.7615 23.6323L21.8878 23.6022L21.8886 23.602L22.2417 23.5176L21.8883 23.6014L21.8876 23.6016L21.7617 23.6315L21.7615 23.6323ZM24.848 21.3829C24.5547 21.344 24.3097 21.47 24.1337 21.6441L24.848 21.3829ZM24.848 21.3829C25.1086 21.4175 25.3078 21.5716 25.4452 21.7104L24.848 21.3829ZM31.728 29.3722C31.5383 30.4419 30.9171 31.2323 30.0495 31.7702L31.728 29.3722ZM31.1364 27.413C31.6903 27.9669 31.8558 28.654 31.7281 29.3719L25.4453 21.7105C26.9667 23.2454 28.4948 24.7727 30.0239 26.3009C30.3947 26.6715 30.7656 27.0422 31.1364 27.413Z" fill="#02A653" stroke="#02A653"/>
<path d="M11.4238 15.4015L11.4238 15.4015C11.426 15.7744 11.6151 16.2887 12.0216 16.6969L11.4238 15.4015ZM11.4238 15.4015L11.4238 15.3964M11.4238 15.4015L11.4238 15.3964M11.4238 15.3964C11.4309 13.8034 12.5787 12.3851 13.9921 12.0021L13.9925 12.002C14.4143 11.8881 14.8382 11.861 15.2516 11.9643C15.6677 12.0682 16.0374 12.2954 16.3616 12.6334L16.3616 12.6334M11.4238 15.3964L16.3616 12.6334M21.1211 18.4016C21.3073 18.2935 21.2127 18.2039 21.1262 18.1221C21.1149 18.1114 21.1038 18.1008 21.0934 18.0904L21.1211 18.4016ZM21.1211 18.4016C21.0627 18.4353 21.0055 18.4724 20.9484 18.5093C20.7566 18.6336 20.5659 18.757 20.3387 18.7522C20.3602 18.8116 20.3788 18.8696 20.3942 18.9175C20.3975 18.9276 20.4006 18.9372 20.4035 18.9463C20.4274 19.0201 20.4455 19.072 20.4655 19.1167C20.4655 19.1168 20.4656 19.117 20.4657 19.1171L20.1899 19.2407M21.1211 18.4016L20.513 19.2405C20.4099 19.2555 20.302 19.257 20.1899 19.2407M20.1899 19.2407L20.0094 19.3216L20.1891 19.2405C20.1894 19.2406 20.1896 19.2406 20.1899 19.2407ZM18.515 20.9969L18.9687 20.7867C18.9686 20.7866 18.9685 20.7864 18.9685 20.7863C18.967 20.7832 18.9656 20.7802 18.9643 20.7772C19.0532 20.7199 19.1311 20.6406 19.1862 20.5378C19.2569 20.4057 19.267 20.2771 19.2654 20.1924C19.265 20.1717 19.2638 20.1515 19.2621 20.1322L17.7382 21.7451C17.839 21.8476 17.9217 21.9318 18.0567 21.7434M18.515 20.9969C18.5479 21.0677 18.5761 21.1407 18.6044 21.2138C18.6289 21.2771 18.6534 21.3405 18.681 21.4025C18.7796 21.6246 18.7694 21.7508 18.4697 21.6948C18.4528 21.6916 18.4353 21.6879 18.4173 21.6842C18.2895 21.6574 18.1407 21.6262 18.0567 21.7434M18.515 20.9969C18.4002 20.7491 18.3044 20.5257 18.6614 20.3738M18.515 20.9969L18.6614 20.3738M18.0567 21.7434L18.4129 21.9985L18.413 21.9986L18.4632 22.0345C18.4424 22.0635 18.4179 22.0951 18.389 22.1269C18.3889 22.1269 18.3889 22.127 18.3888 22.127C18.3732 22.1442 18.3563 22.1615 18.338 22.1784C18.3302 22.1768 18.3229 22.1752 18.3164 22.1739L18.3141 22.1734C18.2952 22.1694 18.2814 22.1666 18.2684 22.1641C18.2459 22.1599 18.2375 22.1593 18.2375 22.1592C18.2375 22.1592 18.2379 22.1592 18.2387 22.1593C18.2433 22.1593 18.278 22.1598 18.3258 22.1409C18.3477 22.1323 18.3707 22.1203 18.3931 22.1041C18.3932 22.1041 18.3932 22.1041 18.3932 22.1041C18.3963 22.1019 18.3993 22.0996 18.4023 22.0973C18.4276 22.0777 18.4478 22.056 18.463 22.0348L18.4129 21.9989L18.4128 21.9988L18.0567 21.7434ZM18.6614 20.3738C18.7964 20.3161 18.7703 20.1864 18.7456 20.0637C18.7397 20.0342 18.7338 20.0052 18.7303 19.9776L18.6614 20.3738ZM16.3616 12.6334C16.8847 13.179 17.4185 13.708 17.9577 14.2423C18.2078 14.4901 18.459 14.739 18.7108 14.9913L16.3616 12.6334Z" fill="#02A653" stroke="#02A653"/>
<path d="M16.0825 33.6977L16.0835 33.7666C16.0924 34.419 16.4921 34.9398 17.1155 35.0258C17.1157 35.0259 17.1158 35.0259 17.1159 35.0259L17.1841 34.5306L16.0825 33.6977ZM16.0825 33.6977L16.1002 33.6311M16.0825 33.6977L16.1002 33.6311M16.1002 33.6311C16.1384 33.4878 16.1832 33.3184 16.2315 33.136C16.2748 32.9724 16.3209 32.7982 16.3675 32.623L16.3677 32.6222C16.7628 31.1435 17.158 29.6655 17.5532 28.1875L17.5599 28.1622C17.5616 28.1556 17.5634 28.1486 17.5653 28.1412C17.5796 28.0861 17.5992 28.0101 17.6242 27.9357L17.6242 27.9357C17.7242 27.6391 17.9026 27.374 18.17 27.2083C18.4451 27.0377 18.7664 27.003 19.0773 27.0901L19.0777 27.0902M16.1002 33.6311L19.0777 27.0902M19.0777 27.0902C19.3974 27.18 19.6583 27.3858 19.8065 27.677M19.0777 27.0902L19.8065 27.677M19.8065 27.677C19.9524 27.9638 19.9695 28.2935 19.8854 28.6097L19.8065 27.677ZM19.2908 30.83C19.2008 31.1647 19.1108 31.4994 19.0211 31.8338L19.8853 28.6101C19.6887 29.3506 19.4896 30.0906 19.2908 30.83Z" fill="#02A653" stroke="#02A653"/>
<path d="M27.1098 10.3793L27.1102 10.3484C27.1185 9.76983 26.7648 9.24191 26.1735 9.13151L26.1731 9.13144C25.8839 9.07766 25.5824 9.11537 25.3223 9.27566C25.061 9.43671 24.8875 9.69313 24.8043 9.99158L24.8043 9.99163C24.5419 10.9332 24.2887 11.8777 24.0363 12.8196C23.9776 13.0387 23.9189 13.2576 23.8601 13.4764L23.8601 13.4764C23.828 13.596 23.7958 13.7158 23.7635 13.8358C23.609 14.4096 23.4534 14.9877 23.3062 15.5674L23.3062 15.5675C23.2269 15.8801 23.2534 16.202 23.4026 16.4795C23.5525 16.7585 23.8069 16.9558 24.1128 17.0474L27.1098 10.3793ZM27.1098 10.3793L27.1066 10.402M27.1098 10.3793L27.1066 10.402M27.1066 10.402C27.1065 10.4028 27.1065 10.4038 27.1064 10.4049C27.1063 10.4056 27.1063 10.4064 27.1062 10.4072C27.1055 10.416 27.1043 10.4316 27.1025 10.4484C27.0989 10.4838 27.0917 10.5423 27.0739 10.6073C26.9622 11.0247 26.8506 11.4423 26.739 11.86C26.3522 13.3083 25.9649 14.7584 25.5691 16.2057L25.5689 16.2064C25.3878 16.8651 24.7513 17.239 24.113 17.0475L27.1066 10.402Z" fill="#02A653" stroke="#02A653"/>
<path d="M8.64629 26.4179V26.418C8.64842 26.793 8.80341 27.141 9.10774 27.3612C9.40702 27.5777 9.78464 27.6235 10.1498 27.5386L10.1499 27.5386C10.5481 27.446 10.946 27.3372 11.3331 27.2315C11.4671 27.1949 11.5997 27.1586 11.7307 27.1235L11.7308 27.1235C13.0332 26.7737 14.3348 26.4227 15.6361 26.0717C15.9445 25.9888 16.2301 25.8292 16.4188 25.5697C16.6156 25.299 16.6679 24.9718 16.591 24.6495L8.64629 26.4179ZM8.64629 26.4179C8.64477 26.1478 8.71517 25.8756 8.91204 25.6486C9.10025 25.4315 9.35789 25.3098 9.62487 25.2373L9.62546 25.2372C11.4261 24.7511 13.2275 24.2676 15.0303 23.7876L15.0305 23.7875M8.64629 26.4179L15.0305 23.7875M15.0305 23.7875C15.3605 23.6998 15.7066 23.71 16.0075 23.869M15.0305 23.7875L16.0075 23.869M16.0075 23.869C16.3152 24.0317 16.5116 24.3167 16.591 24.6494L16.0075 23.869Z" fill="#02A653" stroke="#02A653"/>
<path d="M27.7186 18.5392C29.5188 18.0553 31.3203 17.5747 33.1225 17.0982L31.9224 18.8254C31.5286 18.9308 31.1348 19.0363 30.741 19.1418C29.833 19.3852 28.925 19.6286 28.0163 19.8696C27.5107 20.0039 27.0585 19.6853 27.072 19.2156M27.7186 18.5392C27.2907 18.6547 27.0814 18.8855 27.072 19.2156M27.7186 18.5392L27.7186 18.5392L27.7186 18.5392ZM27.072 19.2156L26.5722 19.2012C26.5722 19.2012 26.5722 19.2012 26.5722 19.2013M27.072 19.2156L26.5722 19.2013M26.5722 19.2013C26.5801 18.9251 26.676 18.6644 26.8747 18.4538C27.0649 18.2522 27.3178 18.1295 27.5884 18.0565L27.5888 18.0564C29.3895 17.5723 31.1917 17.0915 32.9945 16.6148C32.9944 16.6148 32.9944 16.6149 32.9943 16.6149L26.5722 19.2013ZM26.5722 19.2013C26.5472 20.0721 27.3837 20.5549 28.1445 20.3529L26.5722 19.2013ZM30.8712 19.6246C29.9629 19.868 29.0539 20.1116 28.1447 20.3529L32.9947 16.6148C33.3121 16.5306 33.6419 16.5463 33.9291 16.69C34.2211 16.8361 34.4279 17.0948 34.5186 17.4125L34.5186 17.4127C34.6133 17.7451 34.5594 18.0831 34.3734 18.3602C34.1918 18.6307 33.9069 18.8117 33.5847 18.9L33.5842 18.9001C33.2683 18.9863 32.9491 19.0707 32.6322 19.1544C32.4373 19.2059 32.2433 19.2571 32.0516 19.3084L32.0516 19.3084C31.6583 19.4137 31.2648 19.5191 30.8712 19.6246Z" fill="#02A653" stroke="#02A653"/>
<path d="M30.8861 13.565C30.8517 13.7755 30.71 13.9261 30.5669 14.0698L30.8861 13.565ZM30.8861 13.565C30.9314 13.2835 30.8348 13.0459 30.5973 12.894M30.8861 13.565L29.8096 12.917C30.0573 12.726 30.3387 12.728 30.5973 12.894M26.9678 18.3828L26.968 18.3826C28.2862 17.0631 29.6039 15.744 30.921 14.4228L30.9213 14.4226C30.9246 14.4192 30.928 14.4158 30.9314 14.4124C31.0666 14.2767 31.3176 14.025 31.3796 13.6456L31.3798 13.6443L31.3798 13.6443C31.4541 13.1822 31.2853 12.7404 30.8665 12.4727L30.5973 12.894M26.9678 18.3828L29.5045 12.5208C29.7045 12.3667 29.9385 12.2766 30.1896 12.2717C30.4382 12.2668 30.6692 12.346 30.8675 12.4733L30.5973 12.894M26.9678 18.3828C26.7328 18.6178 26.4355 18.741 26.1059 18.7445M26.9678 18.3828L25.3049 16.7024M25.3049 16.7024L25.3047 16.7025C25.1402 16.8666 25.0033 17.0707 24.9469 17.3187C24.8894 17.5721 24.9269 17.8232 25.0312 18.0565L25.0313 18.0567C25.1214 18.2579 25.2597 18.4389 25.4563 18.5663C25.6534 18.694 25.8777 18.7476 26.1059 18.7445M25.3049 16.7024C26.1755 15.8351 27.0439 14.966 27.9126 14.0966C28.2746 13.7343 28.6367 13.3719 28.999 13.0096C29.0249 12.9838 29.0561 12.9508 29.0915 12.9134M25.3049 16.7024L29.0915 12.9134M26.1059 18.7445C26.1062 18.7445 26.1065 18.7445 26.1069 18.7445L26.0999 18.2446L26.1049 18.7445C26.1053 18.7445 26.1056 18.7445 26.1059 18.7445ZM29.0915 12.9134C29.2018 12.797 29.3524 12.638 29.5042 12.521L29.0915 12.9134Z" fill="#02A653" stroke="#02A653"/>
<path d="M13.8814 31.4611L13.8816 31.461C14.626 30.7262 15.3652 29.9851 16.1027 29.2458C16.2936 29.0544 16.4844 28.8631 16.6752 28.6721L16.6752 28.6721C16.7425 28.6046 16.81 28.5371 16.8777 28.4694C17.2307 28.1163 17.5875 27.7594 17.9379 27.3964C18.1049 27.2236 18.2257 27.0109 18.2677 26.7661C18.3099 26.5207 18.2667 26.2783 18.163 26.0576L18.1619 26.0553L18.1619 26.0553C18.0612 25.8439 17.9065 25.6651 17.6878 25.5457C17.4793 25.432 17.247 25.391 17.0144 25.3889C16.7963 25.383 16.6198 25.4739 16.5081 25.5475C16.39 25.6253 16.2863 25.7227 16.2062 25.8031C15.6486 26.3613 15.0899 26.9196 14.5311 27.4781C13.7622 28.2464 12.9931 29.015 12.226 29.784L13.8814 31.4611ZM13.8814 31.4611C13.6395 31.6997 13.3356 31.8558 13.0029 31.8676C12.6638 31.8797 12.3531 31.7391 12.1216 31.4932M13.8814 31.4611L12.1216 31.4932M12.1216 31.4932C11.8978 31.2558 11.7743 30.9503 11.8041 30.6171M12.1216 31.4932L11.8041 30.6171M11.8041 30.6171C11.8329 30.2954 11.9986 30.0119 12.2259 29.7841L11.8041 30.6171Z" fill="#02A653" stroke="#02A653"/>
</svg>
