<svg width="44" height="50" viewBox="0 0 44 50" fill="none" xmlns="http://www.w3.org/2000/svg">
<mask id="path-1-outside-1_13_6" maskUnits="userSpaceOnUse" x="0" y="0" width="36" height="41" fill="black">
<rect fill="white" width="36" height="41"/>
<path d="M25.0835 13.9676C25.5088 14.0399 25.7223 14.4034 26.0241 14.639C26.3814 14.9196 26.6885 15.2628 27.0396 15.5513C27.3387 15.7975 27.3343 16.0278 27.0864 16.2916C26.8755 16.5166 26.6699 16.7477 26.452 16.9657C26.2641 17.1536 26.2482 17.3354 26.4079 17.5498C26.7052 17.9512 26.9946 18.3588 27.2822 18.7673C27.4111 18.95 27.5558 19.0038 27.7719 18.9103C28.1363 18.7541 28.514 18.6288 28.8783 18.4718C29.0839 18.3835 29.2022 18.4118 29.2869 18.6306C29.5577 19.3294 29.8383 20.0246 30.1215 20.7181C30.2089 20.9325 30.1798 21.0825 29.9504 21.1778C29.7739 21.251 29.608 21.3481 29.4342 21.4275C28.7284 21.7495 28.716 21.7504 28.8422 22.5339C28.9092 22.9504 28.8281 23.4692 29.1122 23.7542C29.3936 24.0365 29.8974 23.8503 30.3024 23.8583C30.6209 23.8644 30.7568 23.9756 30.7541 24.2968C30.748 25.0609 30.7506 25.8258 30.763 26.5908C30.7683 26.9243 30.6341 27.0893 30.2945 27.0699C30.2503 27.0672 30.2062 27.0708 30.1621 27.0699C29.2313 27.0566 29.2313 27.0566 29.0072 27.9769C28.993 28.0342 28.9807 28.0916 28.9666 28.1489C28.7275 29.1212 28.7275 29.1212 29.616 29.588C29.9927 29.7856 30.0006 29.8412 29.6512 30.0732C27.4367 31.5467 25.2141 33.0078 23.0066 34.4919C21.5428 35.4765 20.0376 36.3941 18.5483 37.3373C18.2924 37.4996 18.1062 37.5049 17.8301 37.3576C16.4475 36.62 15.0896 36.7232 13.7812 37.5632C13.5226 37.729 13.2844 37.9276 13.0418 38.1181C12.9456 38.194 12.845 38.277 12.725 38.2231C12.3324 38.0431 12.2212 38.314 12.0757 38.5866C11.4175 39.821 11.6671 39.7548 10.3366 39.1531C9.93518 38.9713 9.53196 38.7913 9.12257 38.6281C8.81465 38.5055 8.71141 38.3184 8.85964 38.0114C8.88523 37.9584 8.9064 37.9037 8.92582 37.8481C9.04316 37.5085 9.42785 37.1352 9.21874 36.8388C8.91435 36.4065 8.39643 36.1435 7.91822 35.8841C7.77529 35.8065 7.67206 35.9238 7.57235 36.0121C7.31913 36.2353 7.05885 36.4515 6.81357 36.6844C6.63799 36.8511 6.48094 36.9058 6.28154 36.7232C5.73009 36.2176 5.17071 35.7191 4.6175 35.2153C4.3784 34.9974 4.46751 34.7848 4.67397 34.6189C4.91837 34.423 5.08513 34.1583 5.30835 33.9475C5.49363 33.7728 5.49628 33.6069 5.35335 33.4057C5.04719 32.9743 4.74544 32.5393 4.45428 32.0981C4.32016 31.8952 4.164 31.8882 3.96195 31.9702C3.62138 32.1079 3.27375 32.2287 2.93317 32.3655C2.70554 32.4572 2.54849 32.4361 2.44702 32.1767C2.18409 31.5061 1.91058 30.84 1.63 30.1765C1.52148 29.9197 1.58324 29.7591 1.83823 29.6524C2.13645 29.5271 2.42497 29.3798 2.72583 29.2606C2.95611 29.1698 3.03199 29.0454 2.97553 28.7886C2.88024 28.3589 2.82289 27.9204 2.76201 27.4837C2.72319 27.204 2.58907 27.0708 2.29791 27.0699C1.98999 27.069 1.68294 27.0275 1.37502 27.0187C1.11738 27.0116 1.00533 26.8925 1.00621 26.6367C1.00886 25.8276 1.0071 25.0194 1.00004 24.2103C0.99739 23.9165 1.13856 23.8424 1.41384 23.8477C2.70201 23.8697 2.70466 23.8644 3.02758 22.6001C3.2808 21.611 3.3558 21.8122 2.44438 21.3931C1.69265 21.0472 1.68736 21.0446 2.00146 20.2673C2.22203 19.722 2.46555 19.1864 2.68613 18.6421C2.79642 18.3703 2.96053 18.2812 3.23581 18.3985C3.53314 18.5256 3.83578 18.6385 4.13135 18.7682C4.37222 18.8741 4.53456 18.8335 4.68368 18.5971C4.92631 18.2124 5.19894 17.8462 5.46893 17.4792C5.62333 17.2692 5.58716 17.1068 5.39305 16.9498C5.15395 16.7548 4.93072 16.5395 4.68456 16.3542C4.45604 16.1822 4.4331 16.0269 4.63162 15.8134C5.1213 15.2858 5.60216 14.7493 6.08125 14.2129C6.24448 14.0302 6.40594 13.987 6.61505 14.144C6.88504 14.347 7.16914 14.5305 7.44089 14.7308C7.61382 14.8578 7.7797 14.8896 7.96586 14.759C8.36202 14.4793 8.7573 14.1979 9.16227 13.9314C9.39785 13.777 9.40667 13.5988 9.29815 13.3658C9.16845 13.0862 9.06346 12.795 8.93905 12.5127C8.81817 12.2383 8.90111 12.0671 9.17463 11.9603C9.83195 11.7036 10.4875 11.4424 11.1413 11.1777C11.3945 11.0754 11.5648 11.1327 11.6627 11.3974C11.7289 11.5765 11.8092 11.7503 11.8868 11.925C12.1992 12.6318 12.0183 12.5788 12.883 12.4747C13.2182 12.4341 13.55 12.3627 13.8862 12.33C14.1403 12.3053 14.2585 12.1871 14.2567 11.9374C14.255 11.6136 14.2585 11.2907 14.2532 10.9669C14.2488 10.6951 14.3661 10.5601 14.6476 10.5628C15.4567 10.5707 16.2649 10.5725 17.0739 10.5716C17.3545 10.5707 17.4701 10.7022 17.463 10.9783C17.4533 11.3312 17.4701 11.6842 17.456 12.0371C17.4463 12.2868 17.546 12.4182 17.7886 12.4694C18.2492 12.5665 18.7089 12.6671 19.1641 12.7818C19.4315 12.8497 19.57 12.7571 19.6653 12.5047C19.7791 12.203 19.9388 11.9189 20.0632 11.6198C20.1823 11.3348 20.3482 11.2448 20.6482 11.3815C21.3434 11.6983 22.0466 11.9992 22.7507 12.2956C22.9633 12.3847 23.0322 12.525 22.9333 12.8003C23.2827 12.5038 23.3216 12.2788 23.0533 11.9727C22.7542 11.6312 22.4948 11.251 22.2557 10.8645C22.0255 10.4931 21.7272 10.3289 21.3002 10.4172C20.9199 10.4957 20.7399 10.3307 20.6393 9.96719C20.5335 9.58427 20.4197 9.20576 20.3508 8.81402C20.2908 8.47697 20.3861 8.29875 20.7523 8.23434C21.4564 8.1117 21.4396 8.09141 21.5719 7.36703C21.6514 6.9347 21.7705 6.50854 21.894 6.08592C21.991 5.75593 21.9116 5.54771 21.6108 5.3536C20.9649 4.93803 20.9764 4.92039 21.384 4.28336C21.4237 4.2216 21.4599 4.15631 21.5075 4.10072C21.7264 3.84397 21.8128 3.43723 22.1225 3.3137C22.4781 3.17165 22.7075 3.56781 22.9978 3.71515C23.1698 3.80338 23.2977 3.7778 23.4442 3.67898C23.9806 3.31811 24.5189 2.95902 25.0624 2.60697C25.2212 2.50374 25.2768 2.37757 25.2362 2.19758C25.2168 2.112 25.2027 2.02465 25.1921 1.93642C25.1162 1.29322 25.1153 1.28616 25.7523 1.17058C26.1132 1.10528 26.4811 1.07882 26.842 1.01441C27.1675 0.956174 27.3608 1.07264 27.4031 1.39733C27.4764 1.95407 27.7666 2.20023 28.3437 2.20905C28.7019 2.21435 29.0698 2.33346 29.4121 2.45875C29.7889 2.59639 30.028 2.5311 30.2592 2.18611C30.6315 1.62938 30.6544 1.64349 31.1979 2.00877C31.5517 2.24611 31.9003 2.49139 32.2585 2.72167C32.4623 2.85314 32.5311 3.0296 32.3502 3.1893C31.6638 3.79191 31.992 4.33542 32.4138 4.88686C32.5029 5.00332 32.5911 5.12508 32.6537 5.25655C32.9352 5.84593 33.3058 6.20591 34.0213 5.90769C34.2543 5.81064 34.4431 5.91475 34.5013 6.2015C34.5957 6.66207 34.7078 7.1191 34.818 7.57702C34.8798 7.83554 34.8145 8.00935 34.5339 8.06758C34.4192 8.09141 34.3081 8.13817 34.1925 8.15405C33.8043 8.20699 33.6084 8.40992 33.5555 8.81225C33.4955 9.27723 33.394 9.73956 33.2705 10.1922C33.1743 10.546 33.2625 10.7577 33.5758 10.9563C34.2684 11.3965 34.2578 11.4124 33.7893 12.0724C33.619 12.3115 33.4425 12.5471 33.2846 12.795C33.1223 13.0491 32.9511 13.065 32.6996 12.9053C32.0705 12.5065 32.0732 12.5277 31.4741 12.9432C31.1247 13.185 30.7533 13.402 30.3703 13.5855C30.0845 13.7223 30.0121 13.8891 30.0351 14.2032C30.0977 15.0643 30.2018 14.9822 29.3054 15.1322C28.9869 15.1852 28.6666 15.2346 28.3507 15.3016C28.071 15.3616 27.9519 15.2663 27.9096 14.9796C27.7852 14.144 27.8769 14.2402 27.0564 14.0708C26.5676 13.9702 26.0761 13.8802 25.5838 13.792C25.3906 13.7602 25.1956 13.7391 25.0835 13.9676ZM6.57623 25.315C6.57182 30.4112 10.3922 34.6957 15.9243 34.7001C21.1043 34.7045 25.0482 30.7059 25.1612 25.5761C25.2803 20.1649 20.9852 16.0869 15.5467 16.3172C10.4319 16.5333 6.63799 20.2011 6.57623 25.315ZM27.5919 11.7239C29.6574 11.7203 31.1503 10.186 31.2068 8.1417C31.2588 6.26679 29.2833 4.46335 27.5399 4.55423C25.5732 4.65746 23.9815 6.06563 23.9762 7.91053C23.9701 10.1454 25.47 11.7274 27.5919 11.7239ZM24.4844 14.6884C24.4747 14.564 24.3653 14.5314 24.2842 14.4758C23.8633 14.1837 23.4433 13.8908 23.0163 13.6076C22.8954 13.5273 22.7525 13.3517 22.6104 13.5688C22.4895 13.7549 22.3837 13.9649 22.606 14.1599C22.9925 14.4987 23.416 14.7881 23.8562 15.0493C24.0556 15.1675 24.4871 14.9055 24.4844 14.6884Z"/>
</mask>
<path d="M25.0835 13.9676C25.5088 14.0399 25.7223 14.4034 26.0241 14.639C26.3814 14.9196 26.6885 15.2628 27.0396 15.5513C27.3387 15.7975 27.3343 16.0278 27.0864 16.2916C26.8755 16.5166 26.6699 16.7477 26.452 16.9657C26.2641 17.1536 26.2482 17.3354 26.4079 17.5498C26.7052 17.9512 26.9946 18.3588 27.2822 18.7673C27.4111 18.95 27.5558 19.0038 27.7719 18.9103C28.1363 18.7541 28.514 18.6288 28.8783 18.4718C29.0839 18.3835 29.2022 18.4118 29.2869 18.6306C29.5577 19.3294 29.8383 20.0246 30.1215 20.7181C30.2089 20.9325 30.1798 21.0825 29.9504 21.1778C29.7739 21.251 29.608 21.3481 29.4342 21.4275C28.7284 21.7495 28.716 21.7504 28.8422 22.5339C28.9092 22.9504 28.8281 23.4692 29.1122 23.7542C29.3936 24.0365 29.8974 23.8503 30.3024 23.8583C30.6209 23.8644 30.7568 23.9756 30.7541 24.2968C30.748 25.0609 30.7506 25.8258 30.763 26.5908C30.7683 26.9243 30.6341 27.0893 30.2945 27.0699C30.2503 27.0672 30.2062 27.0708 30.1621 27.0699C29.2313 27.0566 29.2313 27.0566 29.0072 27.9769C28.993 28.0342 28.9807 28.0916 28.9666 28.1489C28.7275 29.1212 28.7275 29.1212 29.616 29.588C29.9927 29.7856 30.0006 29.8412 29.6512 30.0732C27.4367 31.5467 25.2141 33.0078 23.0066 34.4919C21.5428 35.4765 20.0376 36.3941 18.5483 37.3373C18.2924 37.4996 18.1062 37.5049 17.8301 37.3576C16.4475 36.62 15.0896 36.7232 13.7812 37.5632C13.5226 37.729 13.2844 37.9276 13.0418 38.1181C12.9456 38.194 12.845 38.277 12.725 38.2231C12.3324 38.0431 12.2212 38.314 12.0757 38.5866C11.4175 39.821 11.6671 39.7548 10.3366 39.1531C9.93518 38.9713 9.53196 38.7913 9.12257 38.6281C8.81465 38.5055 8.71141 38.3184 8.85964 38.0114C8.88523 37.9584 8.9064 37.9037 8.92582 37.8481C9.04316 37.5085 9.42785 37.1352 9.21874 36.8388C8.91435 36.4065 8.39643 36.1435 7.91822 35.8841C7.77529 35.8065 7.67206 35.9238 7.57235 36.0121C7.31913 36.2353 7.05885 36.4515 6.81357 36.6844C6.63799 36.8511 6.48094 36.9058 6.28154 36.7232C5.73009 36.2176 5.17071 35.7191 4.6175 35.2153C4.3784 34.9974 4.46751 34.7848 4.67397 34.6189C4.91837 34.423 5.08513 34.1583 5.30835 33.9475C5.49363 33.7728 5.49628 33.6069 5.35335 33.4057C5.04719 32.9743 4.74544 32.5393 4.45428 32.0981C4.32016 31.8952 4.164 31.8882 3.96195 31.9702C3.62138 32.1079 3.27375 32.2287 2.93317 32.3655C2.70554 32.4572 2.54849 32.4361 2.44702 32.1767C2.18409 31.5061 1.91058 30.84 1.63 30.1765C1.52148 29.9197 1.58324 29.7591 1.83823 29.6524C2.13645 29.5271 2.42497 29.3798 2.72583 29.2606C2.95611 29.1698 3.03199 29.0454 2.97553 28.7886C2.88024 28.3589 2.82289 27.9204 2.76201 27.4837C2.72319 27.204 2.58907 27.0708 2.29791 27.0699C1.98999 27.069 1.68294 27.0275 1.37502 27.0187C1.11738 27.0116 1.00533 26.8925 1.00621 26.6367C1.00886 25.8276 1.0071 25.0194 1.00004 24.2103C0.99739 23.9165 1.13856 23.8424 1.41384 23.8477C2.70201 23.8697 2.70466 23.8644 3.02758 22.6001C3.2808 21.611 3.3558 21.8122 2.44438 21.3931C1.69265 21.0472 1.68736 21.0446 2.00146 20.2673C2.22203 19.722 2.46555 19.1864 2.68613 18.6421C2.79642 18.3703 2.96053 18.2812 3.23581 18.3985C3.53314 18.5256 3.83578 18.6385 4.13135 18.7682C4.37222 18.8741 4.53456 18.8335 4.68368 18.5971C4.92631 18.2124 5.19894 17.8462 5.46893 17.4792C5.62333 17.2692 5.58716 17.1068 5.39305 16.9498C5.15395 16.7548 4.93072 16.5395 4.68456 16.3542C4.45604 16.1822 4.4331 16.0269 4.63162 15.8134C5.1213 15.2858 5.60216 14.7493 6.08125 14.2129C6.24448 14.0302 6.40594 13.987 6.61505 14.144C6.88504 14.347 7.16914 14.5305 7.44089 14.7308C7.61382 14.8578 7.7797 14.8896 7.96586 14.759C8.36202 14.4793 8.7573 14.1979 9.16227 13.9314C9.39785 13.777 9.40667 13.5988 9.29815 13.3658C9.16845 13.0862 9.06346 12.795 8.93905 12.5127C8.81817 12.2383 8.90111 12.0671 9.17463 11.9603C9.83195 11.7036 10.4875 11.4424 11.1413 11.1777C11.3945 11.0754 11.5648 11.1327 11.6627 11.3974C11.7289 11.5765 11.8092 11.7503 11.8868 11.925C12.1992 12.6318 12.0183 12.5788 12.883 12.4747C13.2182 12.4341 13.55 12.3627 13.8862 12.33C14.1403 12.3053 14.2585 12.1871 14.2567 11.9374C14.255 11.6136 14.2585 11.2907 14.2532 10.9669C14.2488 10.6951 14.3661 10.5601 14.6476 10.5628C15.4567 10.5707 16.2649 10.5725 17.0739 10.5716C17.3545 10.5707 17.4701 10.7022 17.463 10.9783C17.4533 11.3312 17.4701 11.6842 17.456 12.0371C17.4463 12.2868 17.546 12.4182 17.7886 12.4694C18.2492 12.5665 18.7089 12.6671 19.1641 12.7818C19.4315 12.8497 19.57 12.7571 19.6653 12.5047C19.7791 12.203 19.9388 11.9189 20.0632 11.6198C20.1823 11.3348 20.3482 11.2448 20.6482 11.3815C21.3434 11.6983 22.0466 11.9992 22.7507 12.2956C22.9633 12.3847 23.0322 12.525 22.9333 12.8003C23.2827 12.5038 23.3216 12.2788 23.0533 11.9727C22.7542 11.6312 22.4948 11.251 22.2557 10.8645C22.0255 10.4931 21.7272 10.3289 21.3002 10.4172C20.9199 10.4957 20.7399 10.3307 20.6393 9.96719C20.5335 9.58427 20.4197 9.20576 20.3508 8.81402C20.2908 8.47697 20.3861 8.29875 20.7523 8.23434C21.4564 8.1117 21.4396 8.09141 21.5719 7.36703C21.6514 6.9347 21.7705 6.50854 21.894 6.08592C21.991 5.75593 21.9116 5.54771 21.6108 5.3536C20.9649 4.93803 20.9764 4.92039 21.384 4.28336C21.4237 4.2216 21.4599 4.15631 21.5075 4.10072C21.7264 3.84397 21.8128 3.43723 22.1225 3.3137C22.4781 3.17165 22.7075 3.56781 22.9978 3.71515C23.1698 3.80338 23.2977 3.7778 23.4442 3.67898C23.9806 3.31811 24.5189 2.95902 25.0624 2.60697C25.2212 2.50374 25.2768 2.37757 25.2362 2.19758C25.2168 2.112 25.2027 2.02465 25.1921 1.93642C25.1162 1.29322 25.1153 1.28616 25.7523 1.17058C26.1132 1.10528 26.4811 1.07882 26.842 1.01441C27.1675 0.956174 27.3608 1.07264 27.4031 1.39733C27.4764 1.95407 27.7666 2.20023 28.3437 2.20905C28.7019 2.21435 29.0698 2.33346 29.4121 2.45875C29.7889 2.59639 30.028 2.5311 30.2592 2.18611C30.6315 1.62938 30.6544 1.64349 31.1979 2.00877C31.5517 2.24611 31.9003 2.49139 32.2585 2.72167C32.4623 2.85314 32.5311 3.0296 32.3502 3.1893C31.6638 3.79191 31.992 4.33542 32.4138 4.88686C32.5029 5.00332 32.5911 5.12508 32.6537 5.25655C32.9352 5.84593 33.3058 6.20591 34.0213 5.90769C34.2543 5.81064 34.4431 5.91475 34.5013 6.2015C34.5957 6.66207 34.7078 7.1191 34.818 7.57702C34.8798 7.83554 34.8145 8.00935 34.5339 8.06758C34.4192 8.09141 34.3081 8.13817 34.1925 8.15405C33.8043 8.20699 33.6084 8.40992 33.5555 8.81225C33.4955 9.27723 33.394 9.73956 33.2705 10.1922C33.1743 10.546 33.2625 10.7577 33.5758 10.9563C34.2684 11.3965 34.2578 11.4124 33.7893 12.0724C33.619 12.3115 33.4425 12.5471 33.2846 12.795C33.1223 13.0491 32.9511 13.065 32.6996 12.9053C32.0705 12.5065 32.0732 12.5277 31.4741 12.9432C31.1247 13.185 30.7533 13.402 30.3703 13.5855C30.0845 13.7223 30.0121 13.8891 30.0351 14.2032C30.0977 15.0643 30.2018 14.9822 29.3054 15.1322C28.9869 15.1852 28.6666 15.2346 28.3507 15.3016C28.071 15.3616 27.9519 15.2663 27.9096 14.9796C27.7852 14.144 27.8769 14.2402 27.0564 14.0708C26.5676 13.9702 26.0761 13.8802 25.5838 13.792C25.3906 13.7602 25.1956 13.7391 25.0835 13.9676ZM6.57623 25.315C6.57182 30.4112 10.3922 34.6957 15.9243 34.7001C21.1043 34.7045 25.0482 30.7059 25.1612 25.5761C25.2803 20.1649 20.9852 16.0869 15.5467 16.3172C10.4319 16.5333 6.63799 20.2011 6.57623 25.315ZM27.5919 11.7239C29.6574 11.7203 31.1503 10.186 31.2068 8.1417C31.2588 6.26679 29.2833 4.46335 27.5399 4.55423C25.5732 4.65746 23.9815 6.06563 23.9762 7.91053C23.9701 10.1454 25.47 11.7274 27.5919 11.7239ZM24.4844 14.6884C24.4747 14.564 24.3653 14.5314 24.2842 14.4758C23.8633 14.1837 23.4433 13.8908 23.0163 13.6076C22.8954 13.5273 22.7525 13.3517 22.6104 13.5688C22.4895 13.7549 22.3837 13.9649 22.606 14.1599C22.9925 14.4987 23.416 14.7881 23.8562 15.0493C24.0556 15.1675 24.4871 14.9055 24.4844 14.6884Z" fill="black"/>
<path d="M25.0835 13.9676C25.5088 14.0399 25.7223 14.4034 26.0241 14.639C26.3814 14.9196 26.6885 15.2628 27.0396 15.5513C27.3387 15.7975 27.3343 16.0278 27.0864 16.2916C26.8755 16.5166 26.6699 16.7477 26.452 16.9657C26.2641 17.1536 26.2482 17.3354 26.4079 17.5498C26.7052 17.9512 26.9946 18.3588 27.2822 18.7673C27.4111 18.95 27.5558 19.0038 27.7719 18.9103C28.1363 18.7541 28.514 18.6288 28.8783 18.4718C29.0839 18.3835 29.2022 18.4118 29.2869 18.6306C29.5577 19.3294 29.8383 20.0246 30.1215 20.7181C30.2089 20.9325 30.1798 21.0825 29.9504 21.1778C29.7739 21.251 29.608 21.3481 29.4342 21.4275C28.7284 21.7495 28.716 21.7504 28.8422 22.5339C28.9092 22.9504 28.8281 23.4692 29.1122 23.7542C29.3936 24.0365 29.8974 23.8503 30.3024 23.8583C30.6209 23.8644 30.7568 23.9756 30.7541 24.2968C30.748 25.0609 30.7506 25.8258 30.763 26.5908C30.7683 26.9243 30.6341 27.0893 30.2945 27.0699C30.2503 27.0672 30.2062 27.0708 30.1621 27.0699C29.2313 27.0566 29.2313 27.0566 29.0072 27.9769C28.993 28.0342 28.9807 28.0916 28.9666 28.1489C28.7275 29.1212 28.7275 29.1212 29.616 29.588C29.9927 29.7856 30.0006 29.8412 29.6512 30.0732C27.4367 31.5467 25.2141 33.0078 23.0066 34.4919C21.5428 35.4765 20.0376 36.3941 18.5483 37.3373C18.2924 37.4996 18.1062 37.5049 17.8301 37.3576C16.4475 36.62 15.0896 36.7232 13.7812 37.5632C13.5226 37.729 13.2844 37.9276 13.0418 38.1181C12.9456 38.194 12.845 38.277 12.725 38.2231C12.3324 38.0431 12.2212 38.314 12.0757 38.5866C11.4175 39.821 11.6671 39.7548 10.3366 39.1531C9.93518 38.9713 9.53196 38.7913 9.12257 38.6281C8.81465 38.5055 8.71141 38.3184 8.85964 38.0114C8.88523 37.9584 8.9064 37.9037 8.92582 37.8481C9.04316 37.5085 9.42785 37.1352 9.21874 36.8388C8.91435 36.4065 8.39643 36.1435 7.91822 35.8841C7.77529 35.8065 7.67206 35.9238 7.57235 36.0121C7.31913 36.2353 7.05885 36.4515 6.81357 36.6844C6.63799 36.8511 6.48094 36.9058 6.28154 36.7232C5.73009 36.2176 5.17071 35.7191 4.6175 35.2153C4.3784 34.9974 4.46751 34.7848 4.67397 34.6189C4.91837 34.423 5.08513 34.1583 5.30835 33.9475C5.49363 33.7728 5.49628 33.6069 5.35335 33.4057C5.04719 32.9743 4.74544 32.5393 4.45428 32.0981C4.32016 31.8952 4.164 31.8882 3.96195 31.9702C3.62138 32.1079 3.27375 32.2287 2.93317 32.3655C2.70554 32.4572 2.54849 32.4361 2.44702 32.1767C2.18409 31.5061 1.91058 30.84 1.63 30.1765C1.52148 29.9197 1.58324 29.7591 1.83823 29.6524C2.13645 29.5271 2.42497 29.3798 2.72583 29.2606C2.95611 29.1698 3.03199 29.0454 2.97553 28.7886C2.88024 28.3589 2.82289 27.9204 2.76201 27.4837C2.72319 27.204 2.58907 27.0708 2.29791 27.0699C1.98999 27.069 1.68294 27.0275 1.37502 27.0187C1.11738 27.0116 1.00533 26.8925 1.00621 26.6367C1.00886 25.8276 1.0071 25.0194 1.00004 24.2103C0.99739 23.9165 1.13856 23.8424 1.41384 23.8477C2.70201 23.8697 2.70466 23.8644 3.02758 22.6001C3.2808 21.611 3.3558 21.8122 2.44438 21.3931C1.69265 21.0472 1.68736 21.0446 2.00146 20.2673C2.22203 19.722 2.46555 19.1864 2.68613 18.6421C2.79642 18.3703 2.96053 18.2812 3.23581 18.3985C3.53314 18.5256 3.83578 18.6385 4.13135 18.7682C4.37222 18.8741 4.53456 18.8335 4.68368 18.5971C4.92631 18.2124 5.19894 17.8462 5.46893 17.4792C5.62333 17.2692 5.58716 17.1068 5.39305 16.9498C5.15395 16.7548 4.93072 16.5395 4.68456 16.3542C4.45604 16.1822 4.4331 16.0269 4.63162 15.8134C5.1213 15.2858 5.60216 14.7493 6.08125 14.2129C6.24448 14.0302 6.40594 13.987 6.61505 14.144C6.88504 14.347 7.16914 14.5305 7.44089 14.7308C7.61382 14.8578 7.7797 14.8896 7.96586 14.759C8.36202 14.4793 8.7573 14.1979 9.16227 13.9314C9.39785 13.777 9.40667 13.5988 9.29815 13.3658C9.16845 13.0862 9.06346 12.795 8.93905 12.5127C8.81817 12.2383 8.90111 12.0671 9.17463 11.9603C9.83195 11.7036 10.4875 11.4424 11.1413 11.1777C11.3945 11.0754 11.5648 11.1327 11.6627 11.3974C11.7289 11.5765 11.8092 11.7503 11.8868 11.925C12.1992 12.6318 12.0183 12.5788 12.883 12.4747C13.2182 12.4341 13.55 12.3627 13.8862 12.33C14.1403 12.3053 14.2585 12.1871 14.2567 11.9374C14.255 11.6136 14.2585 11.2907 14.2532 10.9669C14.2488 10.6951 14.3661 10.5601 14.6476 10.5628C15.4567 10.5707 16.2649 10.5725 17.0739 10.5716C17.3545 10.5707 17.4701 10.7022 17.463 10.9783C17.4533 11.3312 17.4701 11.6842 17.456 12.0371C17.4463 12.2868 17.546 12.4182 17.7886 12.4694C18.2492 12.5665 18.7089 12.6671 19.1641 12.7818C19.4315 12.8497 19.57 12.7571 19.6653 12.5047C19.7791 12.203 19.9388 11.9189 20.0632 11.6198C20.1823 11.3348 20.3482 11.2448 20.6482 11.3815C21.3434 11.6983 22.0466 11.9992 22.7507 12.2956C22.9633 12.3847 23.0322 12.525 22.9333 12.8003C23.2827 12.5038 23.3216 12.2788 23.0533 11.9727C22.7542 11.6312 22.4948 11.251 22.2557 10.8645C22.0255 10.4931 21.7272 10.3289 21.3002 10.4172C20.9199 10.4957 20.7399 10.3307 20.6393 9.96719C20.5335 9.58427 20.4197 9.20576 20.3508 8.81402C20.2908 8.47697 20.3861 8.29875 20.7523 8.23434C21.4564 8.1117 21.4396 8.09141 21.5719 7.36703C21.6514 6.9347 21.7705 6.50854 21.894 6.08592C21.991 5.75593 21.9116 5.54771 21.6108 5.3536C20.9649 4.93803 20.9764 4.92039 21.384 4.28336C21.4237 4.2216 21.4599 4.15631 21.5075 4.10072C21.7264 3.84397 21.8128 3.43723 22.1225 3.3137C22.4781 3.17165 22.7075 3.56781 22.9978 3.71515C23.1698 3.80338 23.2977 3.7778 23.4442 3.67898C23.9806 3.31811 24.5189 2.95902 25.0624 2.60697C25.2212 2.50374 25.2768 2.37757 25.2362 2.19758C25.2168 2.112 25.2027 2.02465 25.1921 1.93642C25.1162 1.29322 25.1153 1.28616 25.7523 1.17058C26.1132 1.10528 26.4811 1.07882 26.842 1.01441C27.1675 0.956174 27.3608 1.07264 27.4031 1.39733C27.4764 1.95407 27.7666 2.20023 28.3437 2.20905C28.7019 2.21435 29.0698 2.33346 29.4121 2.45875C29.7889 2.59639 30.028 2.5311 30.2592 2.18611C30.6315 1.62938 30.6544 1.64349 31.1979 2.00877C31.5517 2.24611 31.9003 2.49139 32.2585 2.72167C32.4623 2.85314 32.5311 3.0296 32.3502 3.1893C31.6638 3.79191 31.992 4.33542 32.4138 4.88686C32.5029 5.00332 32.5911 5.12508 32.6537 5.25655C32.9352 5.84593 33.3058 6.20591 34.0213 5.90769C34.2543 5.81064 34.4431 5.91475 34.5013 6.2015C34.5957 6.66207 34.7078 7.1191 34.818 7.57702C34.8798 7.83554 34.8145 8.00935 34.5339 8.06758C34.4192 8.09141 34.3081 8.13817 34.1925 8.15405C33.8043 8.20699 33.6084 8.40992 33.5555 8.81225C33.4955 9.27723 33.394 9.73956 33.2705 10.1922C33.1743 10.546 33.2625 10.7577 33.5758 10.9563C34.2684 11.3965 34.2578 11.4124 33.7893 12.0724C33.619 12.3115 33.4425 12.5471 33.2846 12.795C33.1223 13.0491 32.9511 13.065 32.6996 12.9053C32.0705 12.5065 32.0732 12.5277 31.4741 12.9432C31.1247 13.185 30.7533 13.402 30.3703 13.5855C30.0845 13.7223 30.0121 13.8891 30.0351 14.2032C30.0977 15.0643 30.2018 14.9822 29.3054 15.1322C28.9869 15.1852 28.6666 15.2346 28.3507 15.3016C28.071 15.3616 27.9519 15.2663 27.9096 14.9796C27.7852 14.144 27.8769 14.2402 27.0564 14.0708C26.5676 13.9702 26.0761 13.8802 25.5838 13.792C25.3906 13.7602 25.1956 13.7391 25.0835 13.9676ZM6.57623 25.315C6.57182 30.4112 10.3922 34.6957 15.9243 34.7001C21.1043 34.7045 25.0482 30.7059 25.1612 25.5761C25.2803 20.1649 20.9852 16.0869 15.5467 16.3172C10.4319 16.5333 6.63799 20.2011 6.57623 25.315ZM27.5919 11.7239C29.6574 11.7203 31.1503 10.186 31.2068 8.1417C31.2588 6.26679 29.2833 4.46335 27.5399 4.55423C25.5732 4.65746 23.9815 6.06563 23.9762 7.91053C23.9701 10.1454 25.47 11.7274 27.5919 11.7239ZM24.4844 14.6884C24.4747 14.564 24.3653 14.5314 24.2842 14.4758C23.8633 14.1837 23.4433 13.8908 23.0163 13.6076C22.8954 13.5273 22.7525 13.3517 22.6104 13.5688C22.4895 13.7549 22.3837 13.9649 22.606 14.1599C22.9925 14.4987 23.416 14.7881 23.8562 15.0493C24.0556 15.1675 24.4871 14.9055 24.4844 14.6884Z" fill="#02A653"/>
<path d="M25.0835 13.9676C25.5088 14.0399 25.7223 14.4034 26.0241 14.639C26.3814 14.9196 26.6885 15.2628 27.0396 15.5513C27.3387 15.7975 27.3343 16.0278 27.0864 16.2916C26.8755 16.5166 26.6699 16.7477 26.452 16.9657C26.2641 17.1536 26.2482 17.3354 26.4079 17.5498C26.7052 17.9512 26.9946 18.3588 27.2822 18.7673C27.4111 18.95 27.5558 19.0038 27.7719 18.9103C28.1363 18.7541 28.514 18.6288 28.8783 18.4718C29.0839 18.3835 29.2022 18.4118 29.2869 18.6306C29.5577 19.3294 29.8383 20.0246 30.1215 20.7181C30.2089 20.9325 30.1798 21.0825 29.9504 21.1778C29.7739 21.251 29.608 21.3481 29.4342 21.4275C28.7284 21.7495 28.716 21.7504 28.8422 22.5339C28.9092 22.9504 28.8281 23.4692 29.1122 23.7542C29.3936 24.0365 29.8974 23.8503 30.3024 23.8583C30.6209 23.8644 30.7568 23.9756 30.7541 24.2968C30.748 25.0609 30.7506 25.8258 30.763 26.5908C30.7683 26.9243 30.6341 27.0893 30.2945 27.0699C30.2503 27.0672 30.2062 27.0708 30.1621 27.0699C29.2313 27.0566 29.2313 27.0566 29.0072 27.9769C28.993 28.0342 28.9807 28.0916 28.9666 28.1489C28.7275 29.1212 28.7275 29.1212 29.616 29.588C29.9927 29.7856 30.0006 29.8412 29.6512 30.0732C27.4367 31.5467 25.2141 33.0078 23.0066 34.4919C21.5428 35.4765 20.0376 36.3941 18.5483 37.3373C18.2924 37.4996 18.1062 37.5049 17.8301 37.3576C16.4475 36.62 15.0896 36.7232 13.7812 37.5632C13.5226 37.729 13.2844 37.9276 13.0418 38.1181C12.9456 38.194 12.845 38.277 12.725 38.2231C12.3324 38.0431 12.2212 38.314 12.0757 38.5866C11.4175 39.821 11.6671 39.7548 10.3366 39.1531C9.93518 38.9713 9.53196 38.7913 9.12257 38.6281C8.81465 38.5055 8.71141 38.3184 8.85964 38.0114C8.88523 37.9584 8.9064 37.9037 8.92582 37.8481C9.04316 37.5085 9.42785 37.1352 9.21874 36.8388C8.91435 36.4065 8.39643 36.1435 7.91822 35.8841C7.77529 35.8065 7.67206 35.9238 7.57235 36.0121C7.31913 36.2353 7.05885 36.4515 6.81357 36.6844C6.63799 36.8511 6.48094 36.9058 6.28154 36.7232C5.73009 36.2176 5.17071 35.7191 4.6175 35.2153C4.3784 34.9974 4.46751 34.7848 4.67397 34.6189C4.91837 34.423 5.08513 34.1583 5.30835 33.9475C5.49363 33.7728 5.49628 33.6069 5.35335 33.4057C5.04719 32.9743 4.74544 32.5393 4.45428 32.0981C4.32016 31.8952 4.164 31.8882 3.96195 31.9702C3.62138 32.1079 3.27375 32.2287 2.93317 32.3655C2.70554 32.4572 2.54849 32.4361 2.44702 32.1767C2.18409 31.5061 1.91058 30.84 1.63 30.1765C1.52148 29.9197 1.58324 29.7591 1.83823 29.6524C2.13645 29.5271 2.42497 29.3798 2.72583 29.2606C2.95611 29.1698 3.03199 29.0454 2.97553 28.7886C2.88024 28.3589 2.82289 27.9204 2.76201 27.4837C2.72319 27.204 2.58907 27.0708 2.29791 27.0699C1.98999 27.069 1.68294 27.0275 1.37502 27.0187C1.11738 27.0116 1.00533 26.8925 1.00621 26.6367C1.00886 25.8276 1.0071 25.0194 1.00004 24.2103C0.99739 23.9165 1.13856 23.8424 1.41384 23.8477C2.70201 23.8697 2.70466 23.8644 3.02758 22.6001C3.2808 21.611 3.3558 21.8122 2.44438 21.3931C1.69265 21.0472 1.68736 21.0446 2.00146 20.2673C2.22203 19.722 2.46555 19.1864 2.68613 18.6421C2.79642 18.3703 2.96053 18.2812 3.23581 18.3985C3.53314 18.5256 3.83578 18.6385 4.13135 18.7682C4.37222 18.8741 4.53456 18.8335 4.68368 18.5971C4.92631 18.2124 5.19894 17.8462 5.46893 17.4792C5.62333 17.2692 5.58716 17.1068 5.39305 16.9498C5.15395 16.7548 4.93072 16.5395 4.68456 16.3542C4.45604 16.1822 4.4331 16.0269 4.63162 15.8134C5.1213 15.2858 5.60216 14.7493 6.08125 14.2129C6.24448 14.0302 6.40594 13.987 6.61505 14.144C6.88504 14.347 7.16914 14.5305 7.44089 14.7308C7.61382 14.8578 7.7797 14.8896 7.96586 14.759C8.36202 14.4793 8.7573 14.1979 9.16227 13.9314C9.39785 13.777 9.40667 13.5988 9.29815 13.3658C9.16845 13.0862 9.06346 12.795 8.93905 12.5127C8.81817 12.2383 8.90111 12.0671 9.17463 11.9603C9.83195 11.7036 10.4875 11.4424 11.1413 11.1777C11.3945 11.0754 11.5648 11.1327 11.6627 11.3974C11.7289 11.5765 11.8092 11.7503 11.8868 11.925C12.1992 12.6318 12.0183 12.5788 12.883 12.4747C13.2182 12.4341 13.55 12.3627 13.8862 12.33C14.1403 12.3053 14.2585 12.1871 14.2567 11.9374C14.255 11.6136 14.2585 11.2907 14.2532 10.9669C14.2488 10.6951 14.3661 10.5601 14.6476 10.5628C15.4567 10.5707 16.2649 10.5725 17.0739 10.5716C17.3545 10.5707 17.4701 10.7022 17.463 10.9783C17.4533 11.3312 17.4701 11.6842 17.456 12.0371C17.4463 12.2868 17.546 12.4182 17.7886 12.4694C18.2492 12.5665 18.7089 12.6671 19.1641 12.7818C19.4315 12.8497 19.57 12.7571 19.6653 12.5047C19.7791 12.203 19.9388 11.9189 20.0632 11.6198C20.1823 11.3348 20.3482 11.2448 20.6482 11.3815C21.3434 11.6983 22.0466 11.9992 22.7507 12.2956C22.9633 12.3847 23.0322 12.525 22.9333 12.8003C23.2827 12.5038 23.3216 12.2788 23.0533 11.9727C22.7542 11.6312 22.4948 11.251 22.2557 10.8645C22.0255 10.4931 21.7272 10.3289 21.3002 10.4172C20.9199 10.4957 20.7399 10.3307 20.6393 9.96719C20.5335 9.58427 20.4197 9.20576 20.3508 8.81402C20.2908 8.47697 20.3861 8.29875 20.7523 8.23434C21.4564 8.1117 21.4396 8.09141 21.5719 7.36703C21.6514 6.9347 21.7705 6.50854 21.894 6.08592C21.991 5.75593 21.9116 5.54771 21.6108 5.3536C20.9649 4.93803 20.9764 4.92039 21.384 4.28336C21.4237 4.2216 21.4599 4.15631 21.5075 4.10072C21.7264 3.84397 21.8128 3.43723 22.1225 3.3137C22.4781 3.17165 22.7075 3.56781 22.9978 3.71515C23.1698 3.80338 23.2977 3.7778 23.4442 3.67898C23.9806 3.31811 24.5189 2.95902 25.0624 2.60697C25.2212 2.50374 25.2768 2.37757 25.2362 2.19758C25.2168 2.112 25.2027 2.02465 25.1921 1.93642C25.1162 1.29322 25.1153 1.28616 25.7523 1.17058C26.1132 1.10528 26.4811 1.07882 26.842 1.01441C27.1675 0.956174 27.3608 1.07264 27.4031 1.39733C27.4764 1.95407 27.7666 2.20023 28.3437 2.20905C28.7019 2.21435 29.0698 2.33346 29.4121 2.45875C29.7889 2.59639 30.028 2.5311 30.2592 2.18611C30.6315 1.62938 30.6544 1.64349 31.1979 2.00877C31.5517 2.24611 31.9003 2.49139 32.2585 2.72167C32.4623 2.85314 32.5311 3.0296 32.3502 3.1893C31.6638 3.79191 31.992 4.33542 32.4138 4.88686C32.5029 5.00332 32.5911 5.12508 32.6537 5.25655C32.9352 5.84593 33.3058 6.20591 34.0213 5.90769C34.2543 5.81064 34.4431 5.91475 34.5013 6.2015C34.5957 6.66207 34.7078 7.1191 34.818 7.57702C34.8798 7.83554 34.8145 8.00935 34.5339 8.06758C34.4192 8.09141 34.3081 8.13817 34.1925 8.15405C33.8043 8.20699 33.6084 8.40992 33.5555 8.81225C33.4955 9.27723 33.394 9.73956 33.2705 10.1922C33.1743 10.546 33.2625 10.7577 33.5758 10.9563C34.2684 11.3965 34.2578 11.4124 33.7893 12.0724C33.619 12.3115 33.4425 12.5471 33.2846 12.795C33.1223 13.0491 32.9511 13.065 32.6996 12.9053C32.0705 12.5065 32.0732 12.5277 31.4741 12.9432C31.1247 13.185 30.7533 13.402 30.3703 13.5855C30.0845 13.7223 30.0121 13.8891 30.0351 14.2032C30.0977 15.0643 30.2018 14.9822 29.3054 15.1322C28.9869 15.1852 28.6666 15.2346 28.3507 15.3016C28.071 15.3616 27.9519 15.2663 27.9096 14.9796C27.7852 14.144 27.8769 14.2402 27.0564 14.0708C26.5676 13.9702 26.0761 13.8802 25.5838 13.792C25.3906 13.7602 25.1956 13.7391 25.0835 13.9676ZM6.57623 25.315C6.57182 30.4112 10.3922 34.6957 15.9243 34.7001C21.1043 34.7045 25.0482 30.7059 25.1612 25.5761C25.2803 20.1649 20.9852 16.0869 15.5467 16.3172C10.4319 16.5333 6.63799 20.2011 6.57623 25.315ZM27.5919 11.7239C29.6574 11.7203 31.1503 10.186 31.2068 8.1417C31.2588 6.26679 29.2833 4.46335 27.5399 4.55423C25.5732 4.65746 23.9815 6.06563 23.9762 7.91053C23.9701 10.1454 25.47 11.7274 27.5919 11.7239ZM24.4844 14.6884C24.4747 14.564 24.3653 14.5314 24.2842 14.4758C23.8633 14.1837 23.4433 13.8908 23.0163 13.6076C22.8954 13.5273 22.7525 13.3517 22.6104 13.5688C22.4895 13.7549 22.3837 13.9649 22.606 14.1599C22.9925 14.4987 23.416 14.7881 23.8562 15.0493C24.0556 15.1675 24.4871 14.9055 24.4844 14.6884Z" stroke="#02A653" stroke-width="2" mask="url(#path-1-outside-1_13_6)"/>
<mask id="path-2-outside-2_13_6" maskUnits="userSpaceOnUse" x="10.6729" y="25.2827" width="33" height="25" fill="black">
<rect fill="white" x="10.6729" y="25.2827" width="33" height="25"/>
<path d="M21.3792 44.644C21.4489 46.7721 19.7213 48.5623 17.6197 48.6523C17.0276 48.6779 16.4462 48.602 15.8762 48.445C15.7554 48.4115 15.5851 48.4212 15.5551 48.2588C15.5304 48.1256 15.6627 48.0594 15.7509 47.9871C16.2706 47.5556 16.7815 47.1127 17.3188 46.7042C17.5641 46.518 17.6991 46.3186 17.6947 46.0081C17.662 43.8817 17.895 44.3696 16.0606 43.5279C15.5674 43.3011 15.1651 43.3135 14.731 43.6602C14.2501 44.0449 13.7093 44.3528 13.2214 44.7296C12.8967 44.9802 12.8146 44.8619 12.7405 44.5328C12.5773 43.8049 12.722 43.1097 13.0396 42.4762C13.9828 40.5924 16.4136 39.4322 18.4517 40.2572C18.4923 40.2739 18.5417 40.2801 18.5735 40.3075C19.034 40.7063 19.4311 40.5139 19.874 40.2316C22.1786 38.7617 24.4893 37.3023 26.7613 35.7812C28.6909 34.4895 30.6099 33.1811 32.566 31.9308C33.128 31.5717 33.3451 31.1976 33.3292 30.5218C33.2824 28.601 34.8238 26.7323 36.697 26.3617C37.6322 26.1764 38.5383 26.3246 39.4039 26.7278C39.7039 26.8673 39.6615 26.9917 39.4259 27.1531C38.833 27.5607 38.2525 27.9878 37.649 28.3804C37.3613 28.5675 37.2122 28.7827 37.2184 29.133C37.2281 29.6174 37.2316 30.1027 37.1469 30.5844C37.0966 30.8694 37.2105 31.06 37.4831 31.1747C37.9975 31.3909 38.5083 31.6176 39.0157 31.8488C39.2442 31.9529 39.4154 31.8355 39.5865 31.7252C40.205 31.3282 40.8156 30.9197 41.4358 30.5253C41.8302 30.2747 41.9132 30.318 41.9829 30.7953C42.2052 32.3182 41.5355 33.4731 40.3797 34.3404C38.9424 35.4186 37.3825 35.6339 35.7688 34.6845C35.5808 34.5742 35.4441 34.621 35.2853 34.7233C32.7707 36.3538 30.2517 37.9782 27.7398 39.6122C25.8675 40.8298 24.0146 42.0783 22.1274 43.2729C21.5468 43.6435 21.1366 44.0114 21.3792 44.644Z"/>
</mask>
<path d="M21.3792 44.644C21.4489 46.7721 19.7213 48.5623 17.6197 48.6523C17.0276 48.6779 16.4462 48.602 15.8762 48.445C15.7554 48.4115 15.5851 48.4212 15.5551 48.2588C15.5304 48.1256 15.6627 48.0594 15.7509 47.9871C16.2706 47.5556 16.7815 47.1127 17.3188 46.7042C17.5641 46.518 17.6991 46.3186 17.6947 46.0081C17.662 43.8817 17.895 44.3696 16.0606 43.5279C15.5674 43.3011 15.1651 43.3135 14.731 43.6602C14.2501 44.0449 13.7093 44.3528 13.2214 44.7296C12.8967 44.9802 12.8146 44.8619 12.7405 44.5328C12.5773 43.8049 12.722 43.1097 13.0396 42.4762C13.9828 40.5924 16.4136 39.4322 18.4517 40.2572C18.4923 40.2739 18.5417 40.2801 18.5735 40.3075C19.034 40.7063 19.4311 40.5139 19.874 40.2316C22.1786 38.7617 24.4893 37.3023 26.7613 35.7812C28.6909 34.4895 30.6099 33.1811 32.566 31.9308C33.128 31.5717 33.3451 31.1976 33.3292 30.5218C33.2824 28.601 34.8238 26.7323 36.697 26.3617C37.6322 26.1764 38.5383 26.3246 39.4039 26.7278C39.7039 26.8673 39.6615 26.9917 39.4259 27.1531C38.833 27.5607 38.2525 27.9878 37.649 28.3804C37.3613 28.5675 37.2122 28.7827 37.2184 29.133C37.2281 29.6174 37.2316 30.1027 37.1469 30.5844C37.0966 30.8694 37.2105 31.06 37.4831 31.1747C37.9975 31.3909 38.5083 31.6176 39.0157 31.8488C39.2442 31.9529 39.4154 31.8355 39.5865 31.7252C40.205 31.3282 40.8156 30.9197 41.4358 30.5253C41.8302 30.2747 41.9132 30.318 41.9829 30.7953C42.2052 32.3182 41.5355 33.4731 40.3797 34.3404C38.9424 35.4186 37.3825 35.6339 35.7688 34.6845C35.5808 34.5742 35.4441 34.621 35.2853 34.7233C32.7707 36.3538 30.2517 37.9782 27.7398 39.6122C25.8675 40.8298 24.0146 42.0783 22.1274 43.2729C21.5468 43.6435 21.1366 44.0114 21.3792 44.644Z" fill="black"/>
<path d="M21.3792 44.644C21.4489 46.7721 19.7213 48.5623 17.6197 48.6523C17.0276 48.6779 16.4462 48.602 15.8762 48.445C15.7554 48.4115 15.5851 48.4212 15.5551 48.2588C15.5304 48.1256 15.6627 48.0594 15.7509 47.9871C16.2706 47.5556 16.7815 47.1127 17.3188 46.7042C17.5641 46.518 17.6991 46.3186 17.6947 46.0081C17.662 43.8817 17.895 44.3696 16.0606 43.5279C15.5674 43.3011 15.1651 43.3135 14.731 43.6602C14.2501 44.0449 13.7093 44.3528 13.2214 44.7296C12.8967 44.9802 12.8146 44.8619 12.7405 44.5328C12.5773 43.8049 12.722 43.1097 13.0396 42.4762C13.9828 40.5924 16.4136 39.4322 18.4517 40.2572C18.4923 40.2739 18.5417 40.2801 18.5735 40.3075C19.034 40.7063 19.4311 40.5139 19.874 40.2316C22.1786 38.7617 24.4893 37.3023 26.7613 35.7812C28.6909 34.4895 30.6099 33.1811 32.566 31.9308C33.128 31.5717 33.3451 31.1976 33.3292 30.5218C33.2824 28.601 34.8238 26.7323 36.697 26.3617C37.6322 26.1764 38.5383 26.3246 39.4039 26.7278C39.7039 26.8673 39.6615 26.9917 39.4259 27.1531C38.833 27.5607 38.2525 27.9878 37.649 28.3804C37.3613 28.5675 37.2122 28.7827 37.2184 29.133C37.2281 29.6174 37.2316 30.1027 37.1469 30.5844C37.0966 30.8694 37.2105 31.06 37.4831 31.1747C37.9975 31.3909 38.5083 31.6176 39.0157 31.8488C39.2442 31.9529 39.4154 31.8355 39.5865 31.7252C40.205 31.3282 40.8156 30.9197 41.4358 30.5253C41.8302 30.2747 41.9132 30.318 41.9829 30.7953C42.2052 32.3182 41.5355 33.4731 40.3797 34.3404C38.9424 35.4186 37.3825 35.6339 35.7688 34.6845C35.5808 34.5742 35.4441 34.621 35.2853 34.7233C32.7707 36.3538 30.2517 37.9782 27.7398 39.6122C25.8675 40.8298 24.0146 42.0783 22.1274 43.2729C21.5468 43.6435 21.1366 44.0114 21.3792 44.644Z" fill="#02A653"/>
<path d="M21.3792 44.644L22.3787 44.6113L22.3731 44.4431L22.3129 44.2859L21.3792 44.644ZM17.6197 48.6523L17.5769 47.6533L17.5765 47.6533L17.6197 48.6523ZM15.8762 48.445L15.609 49.4086L15.6106 49.4091L15.8762 48.445ZM15.5551 48.2588L16.5384 48.0771L16.5383 48.0765L15.5551 48.2588ZM15.7509 47.9871L16.385 48.7604L16.3897 48.7565L15.7509 47.9871ZM17.3188 46.7042L16.7142 45.9077L16.7136 45.9081L17.3188 46.7042ZM17.6947 46.0081L18.6946 45.9939L18.6946 45.9927L17.6947 46.0081ZM16.0606 43.5279L15.6429 44.4365L15.6436 44.4368L16.0606 43.5279ZM14.731 43.6602L14.1069 42.8789L14.1063 42.8794L14.731 43.6602ZM13.2214 44.7296L13.8323 45.5213L13.8325 45.5211L13.2214 44.7296ZM12.7405 44.5328L11.7647 44.7516L11.7649 44.7525L12.7405 44.5328ZM13.0396 42.4762L13.9335 42.9244L13.9338 42.9239L13.0396 42.4762ZM18.4517 40.2572L18.8335 39.3329L18.8269 39.3302L18.4517 40.2572ZM18.5735 40.3075L19.2281 39.5515L19.226 39.5497L18.5735 40.3075ZM19.874 40.2316L20.4115 41.0748L20.4117 41.0747L19.874 40.2316ZM26.7613 35.7812L26.205 34.9502L26.2049 34.9503L26.7613 35.7812ZM32.566 31.9308L32.0276 31.0881L32.0274 31.0882L32.566 31.9308ZM33.3292 30.5218L34.3289 30.4983L34.3289 30.4974L33.3292 30.5218ZM36.697 26.3617L36.891 27.3427L36.8913 27.3426L36.697 26.3617ZM39.4039 26.7278L38.9816 27.6343L38.9825 27.6347L39.4039 26.7278ZM39.4259 27.1531L38.8606 26.3283L38.8594 26.3291L39.4259 27.1531ZM37.649 28.3804L38.1941 29.2187L38.1943 29.2186L37.649 28.3804ZM37.2184 29.133L36.2186 29.1507L36.2186 29.1531L37.2184 29.133ZM37.1469 30.5844L38.1317 30.7582L38.1318 30.7576L37.1469 30.5844ZM37.4831 31.1747L37.0953 32.0964L37.0957 32.0966L37.4831 31.1747ZM39.0157 31.8488L38.601 32.7588L38.6011 32.7588L39.0157 31.8488ZM39.5865 31.7252L39.0463 30.8837L39.0449 30.8846L39.5865 31.7252ZM41.4358 30.5253L40.8996 29.6813L40.8993 29.6814L41.4358 30.5253ZM41.9829 30.7953L42.9724 30.6508L42.9724 30.6508L41.9829 30.7953ZM40.3797 34.3404L40.9798 35.1403L40.9799 35.1403L40.3797 34.3404ZM35.7688 34.6845L36.2758 33.8226L36.2749 33.8221L35.7688 34.6845ZM35.2853 34.7233L34.7436 33.8828L34.7412 33.8843L35.2853 34.7233ZM27.7398 39.6122L28.2849 40.4505L28.285 40.4505L27.7398 39.6122ZM22.1274 43.2729L21.5925 42.428L21.5894 42.43L22.1274 43.2729ZM20.3797 44.6767C20.4309 46.2378 19.1499 47.5859 17.5769 47.6533L17.6625 49.6514C20.2928 49.5388 22.4669 47.3065 22.3787 44.6113L20.3797 44.6767ZM17.5765 47.6533C17.0996 47.6739 16.6226 47.6134 16.1419 47.4809L15.6106 49.4091C16.2698 49.5907 16.9557 49.682 17.6629 49.6514L17.5765 47.6533ZM16.1435 47.4814C16.0615 47.4586 15.9696 47.4429 15.9656 47.4421C15.9342 47.4361 15.9692 47.441 16.0195 47.459C16.0753 47.4791 16.1961 47.5308 16.3139 47.6505C16.4426 47.7814 16.5126 47.9372 16.5384 48.0771L14.5717 48.4405C14.6126 48.6616 14.7151 48.8771 14.8879 49.0529C15.0498 49.2175 15.2264 49.2993 15.3436 49.3414C15.4554 49.3815 15.5575 49.4004 15.5929 49.4071C15.6558 49.419 15.6306 49.4146 15.609 49.4086L16.1435 47.4814ZM16.5383 48.0765C16.5664 48.2281 16.5515 48.3896 16.4927 48.5382C16.4392 48.6735 16.3648 48.7589 16.328 48.7969C16.2931 48.8328 16.2668 48.8511 16.2825 48.8392C16.2952 48.8296 16.2907 48.8331 16.3154 48.8146C16.3312 48.8028 16.3568 48.7835 16.385 48.7603L15.1169 47.2138C15.123 47.2088 15.1252 47.2073 15.1169 47.2135C15.1127 47.2166 15.1089 47.2195 15.1015 47.225C15.0951 47.2298 15.0862 47.2363 15.0768 47.2435C15.0437 47.2685 14.9693 47.3252 14.8933 47.4034C14.8155 47.4836 14.7071 47.615 14.633 47.8025C14.5536 48.0032 14.5314 48.223 14.5718 48.4412L16.5383 48.0765ZM16.3897 48.7565C16.9314 48.3068 17.4094 47.8915 17.924 47.5003L16.7136 45.9081C16.1535 46.3339 15.6099 46.8045 15.1122 47.2177L16.3897 48.7565ZM17.9234 47.5007C18.1083 47.3604 18.315 47.1682 18.469 46.8983C18.6304 46.6152 18.699 46.3084 18.6946 45.9939L16.6948 46.0223C16.6948 46.0253 16.6944 46.0111 16.7006 45.9855C16.7071 45.9588 16.718 45.9315 16.7318 45.9073C16.758 45.8613 16.7746 45.8619 16.7142 45.9077L17.9234 47.5007ZM18.6946 45.9927C18.6874 45.5246 18.6944 45.0748 18.6826 44.799C18.6705 44.5173 18.6388 44.0914 18.3713 43.711C18.1095 43.3389 17.726 43.1626 17.4936 43.0587C17.3621 42.9999 17.2017 42.9337 17.0447 42.8675C16.8802 42.7981 16.6937 42.7181 16.4777 42.619L15.6436 44.4368C15.8861 44.5481 16.0937 44.637 16.2676 44.7103C16.4491 44.7869 16.5717 44.8373 16.6769 44.8843C16.9177 44.992 16.8219 44.9846 16.7353 44.8615C16.6429 44.7301 16.6737 44.6335 16.6844 44.8846C16.6955 45.1417 16.6857 45.4283 16.6948 46.0234L18.6946 45.9927ZM16.4784 42.6193C16.1362 42.462 15.7351 42.3453 15.2904 42.3825C14.834 42.4206 14.4421 42.6112 14.1069 42.8789L15.3551 44.4416C15.4074 44.3998 15.4393 44.3837 15.4519 44.3782C15.4622 44.3737 15.4621 44.3751 15.4569 44.3755C15.4452 44.3765 15.4918 44.367 15.6429 44.4365L16.4784 42.6193ZM14.1063 42.8794C13.9027 43.0423 13.6799 43.194 13.4212 43.3678C13.1732 43.5344 12.8857 43.7253 12.6102 43.9381L13.8325 45.5211C14.0449 45.3571 14.2718 45.2057 14.5364 45.028C14.7904 44.8574 15.0785 44.6629 15.3557 44.4411L14.1063 42.8794ZM12.6104 43.9379C12.5601 43.9768 12.5943 43.9401 12.6904 43.9066C12.809 43.8652 13.0832 43.8125 13.3753 43.9759C13.6224 44.1142 13.7082 44.3155 13.7186 44.3397C13.7346 44.3764 13.7319 44.3833 13.7161 44.3131L11.7649 44.7525C11.7862 44.847 11.8216 44.9921 11.8839 45.1357C11.9407 45.2667 12.0812 45.5436 12.3987 45.7213C12.7611 45.9241 13.1213 45.8745 13.349 45.7951C13.554 45.7236 13.7203 45.6077 13.8323 45.5213L12.6104 43.9379ZM13.7163 44.314C13.6146 43.8607 13.6941 43.402 13.9335 42.9244L12.1457 42.028C11.7499 42.8173 11.5399 43.7492 11.7647 44.7516L13.7163 44.314ZM13.9338 42.9239C14.6817 41.4302 16.5969 40.5852 18.0765 41.1841L18.8269 39.3302C16.2302 38.2792 13.2839 39.7547 12.1454 42.0285L13.9338 42.9239ZM18.0699 41.1814C18.1229 41.2033 18.1683 41.2175 18.1869 41.2233C18.1923 41.225 18.197 41.2264 18.2003 41.2274C18.2045 41.2287 18.2053 41.2289 18.2074 41.2296C18.2107 41.2306 18.2078 41.2297 18.2026 41.228C18.1937 41.2251 18.1584 41.2134 18.1129 41.1914C18.0659 41.1688 17.9957 41.1296 17.9209 41.0652L19.226 39.5497C19.1354 39.4717 19.047 39.4214 18.9806 39.3895C18.9156 39.3581 18.8594 39.3387 18.8291 39.3287C18.8087 39.3219 18.7669 39.3092 18.7798 39.3132C18.7798 39.3132 18.7811 39.3136 18.7833 39.3143C18.7855 39.315 18.7889 39.3161 18.7933 39.3176C18.8017 39.3206 18.8158 39.3256 18.8335 39.3329L18.0699 41.1814ZM17.9189 41.0634C18.348 41.435 18.8531 41.597 19.3864 41.5127C19.8273 41.443 20.1958 41.2123 20.4115 41.0748L19.3364 39.3883C19.235 39.453 19.1667 39.4926 19.114 39.5181C19.0624 39.543 19.0532 39.5405 19.0743 39.5372C19.1038 39.5325 19.1527 39.5323 19.2038 39.5481C19.2507 39.5626 19.2588 39.5781 19.2281 39.5515L17.9189 41.0634ZM20.4117 41.0747C22.7107 39.6083 25.0339 38.1411 27.3176 36.6122L26.2049 34.9503C23.9447 36.4635 21.6464 37.915 19.3362 39.3885L20.4117 41.0747ZM27.3176 36.6122C29.2567 35.3141 31.1603 34.0161 33.1045 32.7734L32.0274 31.0882C30.0595 32.346 28.1251 33.6649 26.205 34.9502L27.3176 36.6122ZM33.1044 32.7735C33.4651 32.543 33.8084 32.2492 34.0406 31.8268C34.275 31.4005 34.3395 30.947 34.3289 30.4983L32.3295 30.5453C32.3348 30.7724 32.2987 30.8438 32.288 30.8633C32.2751 30.8868 32.2289 30.9595 32.0276 31.0881L33.1044 32.7735ZM34.3289 30.4974C34.2943 29.0767 35.4818 27.6215 36.891 27.3427L36.5029 25.3807C34.1658 25.8431 32.2705 28.1253 32.3295 30.5461L34.3289 30.4974ZM36.8913 27.3426C37.59 27.2042 38.2806 27.3078 38.9816 27.6343L39.8262 25.8214C38.7961 25.3415 37.6744 25.1486 36.5026 25.3808L36.8913 27.3426ZM38.9825 27.6347C39.0136 27.6492 38.9504 27.6261 38.8676 27.5452C38.7709 27.4505 38.6042 27.2276 38.6164 26.8953C38.6273 26.5999 38.7755 26.4202 38.8159 26.3747C38.8623 26.3223 38.8921 26.3067 38.8606 26.3283L39.9913 27.978C40.0776 27.9188 40.201 27.8271 40.3122 27.7017C40.4174 27.5831 40.6016 27.3333 40.6151 26.9691C40.6299 26.5681 40.4322 26.2779 40.2664 26.1156C40.1145 25.9671 39.9441 25.8762 39.8253 25.821L38.9825 27.6347ZM38.8594 26.3291C38.2274 26.7636 37.6969 27.1562 37.1036 27.5422L38.1943 29.2186C38.808 28.8194 39.4386 28.3579 39.9925 27.9772L38.8594 26.3291ZM37.1038 27.5421C36.8833 27.6855 36.6424 27.8865 36.4656 28.1817C36.2818 28.4886 36.2127 28.8208 36.2186 29.1507L38.2182 29.1154C38.218 29.1007 38.2197 29.1081 38.2143 29.1303C38.2085 29.1542 38.1976 29.1823 38.1814 29.2093C38.1495 29.2625 38.127 29.2624 38.1941 29.2187L37.1038 27.5421ZM36.2186 29.1531C36.2284 29.641 36.2279 30.0367 36.162 30.4113L38.1318 30.7576C38.2354 30.1687 38.2278 29.5939 38.2182 29.113L36.2186 29.1531ZM36.1622 30.4106C36.1075 30.7204 36.1252 31.0916 36.3275 31.4427C36.5254 31.7861 36.8272 31.9836 37.0953 32.0964L37.8709 30.2529C37.8709 30.2529 37.8723 30.2535 37.875 30.2549C37.8777 30.2562 37.8818 30.2583 37.887 30.2613C37.8974 30.2673 37.9131 30.2772 37.9319 30.2923C37.9711 30.3235 38.0195 30.3732 38.0603 30.4441C38.1502 30.6 38.1361 30.7334 38.1317 30.7582L36.1622 30.4106ZM37.0957 32.0966C37.5981 32.3077 38.0994 32.5302 38.601 32.7588L39.4303 30.9388C38.9173 30.705 38.3969 30.474 37.8705 30.2528L37.0957 32.0966ZM38.6011 32.7588C39.3965 33.1212 40.044 32.6201 40.1282 32.5659L39.0449 30.8846C38.9916 30.919 38.9764 30.9288 38.9623 30.9368C38.9523 30.9425 38.9726 30.9296 39.0138 30.9163C39.0593 30.9015 39.129 30.8864 39.2148 30.8896C39.3023 30.8929 39.3763 30.9142 39.4303 30.9388L38.6011 32.7588ZM40.1267 32.5668C40.7848 32.1443 41.3362 31.7737 41.9724 31.3692L40.8993 29.6814C40.2949 30.0657 39.6252 30.5121 39.0463 30.8837L40.1267 32.5668ZM41.9721 31.3694C42.0631 31.3116 42.0663 31.3172 42.0239 31.3329C41.9913 31.3449 41.7135 31.4457 41.3859 31.2828C41.0725 31.1269 40.9849 30.862 40.9805 30.8493C40.9696 30.8186 40.9771 30.8285 40.9934 30.9398L42.9724 30.6508C42.9538 30.5234 42.9248 30.3489 42.8664 30.1837C42.8145 30.0365 42.6685 29.6869 42.2763 29.4919C41.8699 29.2899 41.4932 29.3969 41.3318 29.4564C41.1608 29.5195 41.0058 29.6138 40.8996 29.6813L41.9721 31.3694ZM40.9934 30.9398C41.1502 32.0138 40.7198 32.835 39.7795 33.5406L40.9799 35.1403C42.3513 34.1112 43.2603 32.6225 42.9724 30.6508L40.9934 30.9398ZM39.7796 33.5405C39.1735 33.9952 38.5965 34.2273 38.0501 34.2769C37.5121 34.3256 36.9255 34.2048 36.2758 33.8226L35.2617 35.5464C36.2258 36.1136 37.2261 36.3598 38.2307 36.2687C39.2271 36.1784 40.1487 35.7638 40.9798 35.1403L39.7796 33.5405ZM36.2749 33.8221C36.0221 33.6737 35.7166 33.587 35.3794 33.6336C35.0815 33.6747 34.8582 33.8089 34.7436 33.8828L35.827 35.5639C35.8711 35.5354 35.7956 35.5951 35.6528 35.6148C35.5736 35.6257 35.4916 35.6223 35.4137 35.6046C35.3392 35.5876 35.2879 35.5618 35.2626 35.547L36.2749 33.8221ZM34.7412 33.8843C32.2301 35.5126 29.7066 37.1398 27.1945 38.774L28.285 40.4505C30.7968 38.8165 33.3113 37.1951 35.8293 35.5624L34.7412 33.8843ZM27.1946 38.7739C25.3017 40.0049 23.4753 41.2362 21.5925 42.428L22.6622 44.1178C24.554 42.9203 26.4333 41.6547 28.2849 40.4505L27.1946 38.7739ZM21.5894 42.43C21.2962 42.6171 20.8845 42.8973 20.6123 43.3058C20.2818 43.802 20.2121 44.3935 20.4455 45.0021L22.3129 44.2859C22.2984 44.2482 22.3123 44.2652 22.3068 44.3182C22.301 44.3734 22.2806 44.409 22.2768 44.4146C22.2765 44.4151 22.2819 44.407 22.2973 44.3907C22.3129 44.3743 22.3362 44.3521 22.3699 44.3242C22.4399 44.2661 22.5348 44.1992 22.6654 44.1158L21.5894 42.43Z" fill="#02A653" mask="url(#path-2-outside-2_13_6)"/>
</svg>
