<svg width="47" height="42" viewBox="0 0 47 42" fill="none" xmlns="http://www.w3.org/2000/svg">
<path d="M0 12.9638C0.157369 12.783 0.303947 12.5933 0.473006 12.4242C4.14555 8.7436 7.82079 5.06566 11.496 1.38773C12.2172 0.665629 12.6525 0.665629 13.4033 1.38413C14.0265 1.98123 14.0139 1.97224 13.5382 2.68894C12.6336 4.05311 12.5185 5.5 13.2783 6.946C14.0283 8.37311 15.2702 9.11679 16.8861 9.15366C19.2071 9.20582 21.529 9.2229 23.8508 9.24538C24.1251 9.24808 24.331 9.32901 24.5253 9.52415C30.1051 15.1112 35.6922 20.6919 41.2711 26.2799C42.1218 27.1324 42.1713 28.4543 41.4231 29.3445C40.665 30.2456 39.3899 30.4147 38.3836 29.733C38.1624 29.5828 37.9646 29.394 37.7748 29.2043C35.2398 26.6747 32.7085 24.1424 30.178 21.6074C29.928 21.3574 29.6744 21.1479 29.2895 21.1515C28.8911 21.1551 28.5971 21.3151 28.4028 21.6577C28.1978 22.0201 28.2212 22.3798 28.4604 22.7135C28.5728 22.8699 28.7158 23.0066 28.8525 23.1442C32.1464 26.44 35.4413 29.7357 38.7379 33.0297C39.4133 33.7041 39.7289 34.4856 39.4555 35.4334C38.9933 37.0367 37.0491 37.579 35.7587 36.4702C35.6229 36.3533 35.4988 36.222 35.372 36.0943C32.0871 32.8103 28.8021 29.5262 25.5189 26.2403C25.1862 25.9067 24.8319 25.6585 24.3256 25.8393C23.6458 26.0821 23.4057 26.8167 23.8284 27.4031C23.9408 27.5595 24.0864 27.6944 24.224 27.832C26.7977 30.4075 29.3758 32.9784 31.945 35.5593C32.8973 36.5161 32.8946 37.9027 31.9648 38.8128C31.1986 39.5627 29.963 39.6616 29.0728 39.0331C28.866 38.8874 28.678 38.7111 28.4982 38.5313C25.911 35.9486 23.3275 33.3615 20.7385 30.7788C20.511 30.5513 20.3527 30.3022 20.243 29.9947C19.8168 28.7996 18.9877 28.0011 17.7593 27.6683C17.3897 27.5685 17.2872 27.4669 17.3816 27.0658C17.8519 25.0677 16.6964 23.1532 14.736 22.6802C13.9348 22.4869 13.1246 22.5255 12.3665 22.896C12.0913 23.0309 11.9933 22.9653 11.8836 22.6856C10.8701 20.0805 7.86215 19.4159 5.83704 21.3394C5.42518 21.7306 5.41619 21.7297 5.20037 21.1991C5.11044 20.977 4.98365 20.7594 4.94858 20.5274C4.73186 19.1147 3.83081 18.1255 2.92167 17.1237C1.9271 16.0266 0.97209 14.8918 0 13.7731C0 13.5033 0 13.2336 0 12.9638Z" fill="#02A653"/>
<path d="M46.0414 12.9638C45.715 13.4368 45.4965 13.9719 45.3526 14.5114C44.9111 16.1678 44.1575 17.6723 43.2493 19.1093C42.5128 20.2756 41.6999 21.3871 40.868 22.4878C40.5956 22.8484 40.4409 22.8079 40.1522 22.5174C35.2972 17.6462 30.4295 12.7884 25.5799 7.9127C25.2094 7.54041 24.8389 7.40462 24.3218 7.39203C21.9253 7.33538 19.5288 7.33268 17.1323 7.3111C15.8491 7.30031 14.913 6.56742 14.7142 5.45775C14.4705 4.09538 15.4102 2.94794 16.8284 2.77528C19.1727 2.49022 21.5117 2.1566 23.8515 1.83916C25.9549 1.5541 28.0591 1.27443 30.1598 0.967787C31.1849 0.818511 32.2514 0.827504 33.1489 0.153965C33.5122 -0.118508 33.9222 -0.00250483 34.2612 0.292449C34.3629 0.380576 34.4546 0.479494 34.5499 0.575714C38.2144 4.24286 41.8788 7.91 45.5406 11.5789C45.7195 11.7579 45.8733 11.962 46.0396 12.1545C46.0414 12.4242 46.0414 12.694 46.0414 12.9638Z" fill="#02A653"/>
<path d="M22.3914 41.0206C21.9013 40.9172 21.4453 40.7472 21.0686 40.3983C20.8851 40.2284 20.8743 40.1025 21.0713 39.9262C21.439 39.5971 21.7781 39.2347 22.1405 38.8993C22.7888 38.2986 23.2133 37.5783 23.3509 36.6997C23.3787 36.5252 23.4336 36.3733 23.6278 36.5423C24.3715 37.1907 24.9839 37.911 24.8607 38.9973C24.7285 40.16 23.9947 40.7481 22.93 41.0215C22.7511 41.0206 22.5712 41.0206 22.3914 41.0206Z" fill="#02A653"/>
<path d="M10.6021 31.071C10.0301 31.0594 9.49779 30.7203 9.17136 30.0828C8.83864 29.4326 8.889 28.76 9.37819 28.2402C10.4735 27.0748 11.6002 25.9354 12.7675 24.8428C13.45 24.2035 14.5363 24.3267 15.1541 25.0029C15.7854 25.6935 15.7952 26.7259 15.137 27.3985C14.0813 28.4794 13.0058 29.5396 11.9348 30.6052C11.6119 30.9272 11.2118 31.0692 10.6021 31.071Z" fill="#02A653"/>
<path d="M18.5595 31.2615C18.5874 31.668 18.4012 32.0619 18.0685 32.3955C17.3923 33.0735 16.7223 33.7579 16.0353 34.4251C15.3213 35.1175 14.2737 35.1112 13.574 34.4305C12.8807 33.7552 12.8573 32.6896 13.5453 31.9747C14.2197 31.2741 14.9103 30.5889 15.6082 29.9109C16.1648 29.3695 16.8689 29.2445 17.5514 29.5782C18.2106 29.8983 18.5757 30.4288 18.5595 31.2615Z" fill="#02A653"/>
<path d="M10.2018 24.04C10.218 24.3593 10.039 24.7711 9.69283 25.1164C9.25849 25.549 8.83315 25.9905 8.39072 26.4149C7.66682 27.1092 6.62818 27.1128 5.93037 26.4365C5.23345 25.7612 5.19208 24.7118 5.86562 23.9762C6.31974 23.4807 6.79545 23.0014 7.29723 22.5545C7.86286 22.05 8.5283 21.9547 9.21533 22.2874C9.86369 22.6003 10.1991 23.1345 10.2018 24.04Z" fill="#02A653"/>
<path d="M18.8267 38.8048C18.0983 38.7887 17.5677 38.4406 17.2602 37.7923C16.9409 37.1187 17.0435 36.4695 17.5353 35.912C17.8717 35.5307 18.2386 35.1737 18.6144 34.8302C19.2412 34.2564 20.2151 34.251 20.8824 34.7969C21.5262 35.3238 21.7393 36.2914 21.2996 36.9902C20.8985 37.6268 20.3473 38.1448 19.7304 38.5782C19.4678 38.7617 19.154 38.8273 18.8267 38.8048Z" fill="#02A653"/>
</svg>
