<svg width="40" height="52" viewBox="0 0 40 52" fill="none" xmlns="http://www.w3.org/2000/svg">
<path d="M27.8979 51.3109C27.5879 50.7597 27.3711 50.1661 27.1194 49.5889C25.5544 45.9974 23.9974 42.4024 22.4379 38.8084C22.2694 38.4202 22.1 38.0319 21.931 37.6442C21.789 37.3177 21.7994 37.2963 22.1643 37.2519C22.9228 37.1597 23.6719 37.0182 24.419 36.8602C27.2898 36.2531 29.886 35.0325 32.2729 33.3449C32.5779 33.1291 32.8839 32.9143 33.1795 32.6866C33.3454 32.5585 33.4376 32.559 33.5274 32.7698C34.423 34.8691 35.3246 36.9663 36.2257 39.0636C37.2121 41.3593 38.1989 43.6544 39.1862 45.9491C39.2057 45.9944 39.2356 46.0348 39.2605 46.0777C39.2605 46.1111 39.2605 46.1439 39.2605 46.1773C38.6948 45.9795 38.1705 45.6909 37.6307 45.4372C35.3849 44.3826 33.1426 43.3195 30.9023 42.2534C30.7233 42.1682 30.6491 42.1811 30.5943 42.3865C30.4547 42.9073 30.2922 43.4222 30.1387 43.939C29.4081 46.3966 28.6779 48.8538 27.9472 51.3114C27.9308 51.3109 27.9143 51.3109 27.8979 51.3109Z" fill="#02A653"/>
<path d="M11.3011 51.3106C11.0484 50.4768 10.7927 49.6434 10.5435 48.8086C9.90155 46.661 9.26061 44.5134 8.62614 42.3638C8.57131 42.1783 8.50453 42.1739 8.34853 42.2476C5.94024 43.3895 3.52996 44.5268 1.11969 45.6652C0.819148 45.8072 0.520106 45.9508 0.218073 46.0898C0.155275 46.1187 0.0805141 46.1935 0.0172168 46.1172C-0.0286363 46.0624 0.0286801 45.9921 0.0550955 45.9328C0.490202 44.9629 0.925806 43.9935 1.36141 43.0241C2.75046 39.9345 4.14101 36.8454 5.52756 33.7548C5.81265 33.1194 5.80567 33.1159 6.36289 33.5301C8.68794 35.2595 11.2562 36.4592 14.0926 37.0727C15.0665 37.2835 16.0499 37.438 17.0352 37.5831C17.3193 37.6249 17.3278 37.6429 17.2091 37.9145C15.9676 40.7609 14.7261 43.6068 13.4836 46.4532C12.8057 48.0057 12.1269 49.5572 11.4481 51.1087C11.4182 51.177 11.3828 51.2433 11.3504 51.3101C11.334 51.3106 11.3175 51.3106 11.3011 51.3106Z" fill="#02A653"/>
<path d="M2.62186 24.1353C2.61887 23.4675 2.84215 22.847 3.02905 22.2195C3.41282 20.9306 3.46416 19.6392 3.07491 18.3434C2.86458 17.6421 2.46087 17.0396 2.07062 16.4315C1.72224 15.8888 1.43715 15.3236 1.36588 14.6677C1.27517 13.8358 1.48301 13.0543 1.73968 12.2778C2.02128 11.4256 2.56903 10.828 3.3899 10.4517C5.73638 9.37612 7.09553 7.46126 7.88849 5.08088C8.01408 4.70359 8.08635 4.30935 8.1965 3.92658C8.35998 3.3579 8.69291 2.89838 9.14546 2.52457C9.31193 2.38751 9.48587 2.25892 9.66031 2.13183C10.7633 1.32492 11.957 1.12057 13.2678 1.5497C14.0253 1.7979 14.8013 1.99078 15.6063 2.00972C17.0227 2.04262 18.3285 1.6718 19.5382 0.934666C20.1612 0.555381 20.7792 0.154664 21.5258 0.0480059C23.0001 -0.16232 25.3595 0.270294 26.3329 2.31175C26.5039 2.6706 26.7127 3.01301 26.9185 3.35392C27.7793 4.77835 29.0651 5.63212 30.6321 6.1051C31.125 6.25363 31.617 6.40414 32.1099 6.55217C33.4915 6.96634 34.2934 7.93524 34.724 9.26697C34.9857 10.0759 34.9443 10.8873 34.7659 11.7007C34.5356 12.7503 34.3886 13.8039 34.4235 14.885C34.4624 16.1011 34.8068 17.2006 35.515 18.1904C35.8873 18.7107 36.2412 19.242 36.3872 19.8835C36.5831 20.7442 36.3862 21.5651 36.1559 22.3835C35.8115 23.6095 35.0998 24.5261 33.9211 25.0644C33.2627 25.3649 32.6282 25.7138 32.0969 26.2182C31.1764 27.0914 30.6072 28.159 30.349 29.398C30.2763 29.7474 30.1965 30.0953 30.1063 30.4406C29.9184 31.1603 29.5381 31.7629 28.9729 32.2479C28.3185 32.8101 27.6008 33.2676 26.7874 33.5651C26.1595 33.7949 25.525 33.8198 24.8825 33.6165C24.266 33.4211 23.6734 33.136 23.0275 33.0498C21.2841 32.817 19.6882 33.146 18.339 34.3466C17.8272 34.8022 17.2769 35.1715 16.5617 35.2109C16.1097 35.2358 15.6666 35.176 15.228 35.0843C14.3558 34.9024 13.5095 34.6397 12.7011 34.2584C11.9285 33.8941 11.3743 33.3319 11.0813 32.5215C11.0135 32.3341 10.9357 32.1497 10.8495 31.9702C10.0735 30.3554 8.84841 29.2629 7.10649 28.7869C6.78751 28.6997 6.45657 28.6509 6.12862 28.6005C5.16122 28.4515 4.37923 28.0059 3.81304 27.195C3.25134 26.3906 2.78533 25.5463 2.64179 24.557C2.63482 24.5077 2.62435 24.4583 2.62285 24.409C2.61986 24.3183 2.62186 24.2271 2.62186 24.1353ZM6.07031 17.4981C6.02994 24.3875 11.6081 30.322 18.9012 30.3305C25.9611 30.3385 31.7191 24.5889 31.7226 17.5275C31.7261 10.4537 25.987 4.68864 18.9421 4.67718C11.8314 4.66571 6.06234 10.3904 6.07031 17.4981Z" fill="#02A653"/>
<path d="M30.1078 17.4945C30.1791 23.4638 25.2953 28.7026 18.9576 28.7365C12.7151 28.7698 7.64331 23.712 7.65676 17.5039C7.67022 11.3606 12.5895 6.2764 18.8853 6.2749C25.4079 6.27341 30.1801 11.6621 30.1078 17.4945ZM17.3422 23.3223C17.4235 23.3014 17.4678 23.2376 17.5202 23.1857C20.5918 20.1146 23.6625 17.0424 26.7371 13.9742C26.8817 13.8302 26.8912 13.739 26.7406 13.593C26.158 13.0248 25.5789 12.4521 25.0157 11.865C24.8392 11.6806 24.746 11.6886 24.5681 11.867C22.243 14.2045 19.909 16.534 17.5775 18.8651C17.3383 19.1038 17.3378 19.1038 17.095 18.8611C16.2198 17.9859 15.3431 17.1127 14.4729 16.233C14.3379 16.0964 14.2482 16.0865 14.1081 16.2285C13.506 16.8361 12.8965 17.4361 12.2844 18.0337C12.1748 18.1409 12.1763 18.2132 12.2854 18.3178C12.5551 18.5765 12.8157 18.8446 13.0799 19.1088C14.4306 20.4595 15.7812 21.8106 17.1329 23.1603C17.1957 23.2221 17.2455 23.3058 17.3422 23.3223Z" fill="#02A653"/>
</svg>
