<svg width="60" height="60" viewBox="0 0 60 60" fill="none" xmlns="http://www.w3.org/2000/svg">
<g filter="url(#filter0_d_12_65)">
<circle cx="30" cy="26" r="22" fill="white"/>
<circle cx="30" cy="26" r="22" fill="#02A653"/>
</g>
<path d="M19.3053 26.4624C19.2875 26.1194 19.4228 25.7989 19.674 25.538C20.3213 24.8659 20.969 24.1942 21.6332 23.5394C22.1677 23.0129 22.982 23.0215 23.5236 23.5588C24.1853 24.2154 24.8284 24.8914 25.4791 25.5596C26.1497 26.2482 26.8224 26.935 27.4879 27.6287C27.6037 27.7492 27.6693 27.7034 27.7614 27.6088C28.7952 26.5475 29.8315 25.4888 30.867 24.4296C32.8089 22.4435 34.753 20.4592 36.6916 18.4696C37.1161 18.0338 37.6061 17.902 38.1778 18.0714C38.4078 18.1392 38.5896 18.2882 38.7557 18.4571C39.3494 19.0618 39.9455 19.6644 40.5337 20.2747C41.1619 20.9261 41.1539 21.7498 40.5184 22.3991C38.1025 24.8681 35.6857 27.3362 33.2698 29.8048C31.7354 31.3724 30.2044 32.9438 28.6654 34.5066C28.1263 35.0539 27.4748 35.145 26.8993 34.7843C26.7171 34.6703 26.57 34.5126 26.4211 34.361C24.817 32.7231 23.2167 31.0808 21.6146 29.4403C20.9927 28.8036 20.3699 28.1677 19.7458 27.5328C19.463 27.246 19.2972 26.9095 19.3053 26.4624Z" fill="#02A653"/>
<path d="M19.3053 26.4624C19.2875 26.1194 19.4228 25.7989 19.674 25.538C20.3213 24.8659 20.969 24.1942 21.6332 23.5394C22.1677 23.0129 22.982 23.0215 23.5236 23.5588C24.1853 24.2154 24.8284 24.8914 25.4791 25.5596C26.1497 26.2482 26.8224 26.935 27.4879 27.6287C27.6037 27.7492 27.6693 27.7034 27.7614 27.6088C28.7952 26.5475 29.8315 25.4888 30.867 24.4296C32.8089 22.4435 34.753 20.4592 36.6916 18.4696C37.1161 18.0338 37.6061 17.902 38.1778 18.0714C38.4078 18.1392 38.5896 18.2882 38.7557 18.4571C39.3494 19.0618 39.9455 19.6644 40.5337 20.2747C41.1619 20.9261 41.1539 21.7498 40.5184 22.3991C38.1025 24.8681 35.6857 27.3362 33.2698 29.8048C31.7354 31.3724 30.2044 32.9438 28.6654 34.5066C28.1263 35.0539 27.4748 35.145 26.8993 34.7843C26.7171 34.6703 26.57 34.5126 26.4211 34.361C24.817 32.7231 23.2167 31.0808 21.6146 29.4403C20.9927 28.8036 20.3699 28.1677 19.7458 27.5328C19.463 27.246 19.2972 26.9095 19.3053 26.4624Z" fill="white"/>
<defs>
<filter id="filter0_d_12_65" x="0" y="0" width="60" height="60" filterUnits="userSpaceOnUse" color-interpolation-filters="sRGB">
<feFlood flood-opacity="0" result="BackgroundImageFix"/>
<feColorMatrix in="SourceAlpha" type="matrix" values="0 0 0 0 0 0 0 0 0 0 0 0 0 0 0 0 0 0 127 0" result="hardAlpha"/>
<feOffset dy="4"/>
<feGaussianBlur stdDeviation="4"/>
<feComposite in2="hardAlpha" operator="out"/>
<feColorMatrix type="matrix" values="0 0 0 0 0 0 0 0 0 0 0 0 0 0 0 0 0 0 0.25 0"/>
<feBlend mode="normal" in2="BackgroundImageFix" result="effect1_dropShadow_12_65"/>
<feBlend mode="normal" in="SourceGraphic" in2="effect1_dropShadow_12_65" result="shape"/>
</filter>
</defs>
</svg>
