<svg width="24" height="25" viewBox="0 0 24 25" fill="none" xmlns="http://www.w3.org/2000/svg">
<path d="M0 6.11143C0.0114666 6.03865 0.0226665 5.9656 0.0341331 5.89282C0.106399 5.4306 0.263731 5.00894 0.582662 4.66699C1.14212 4.06672 1.66132 3.42145 2.32025 2.93006C2.70851 2.64062 3.13064 2.43173 3.62024 2.41007C4.2189 2.3834 4.71356 2.6459 5.17223 3.0109C5.69756 3.42923 6.09995 3.96478 6.48848 4.51255C6.81115 4.96727 7.10955 5.43866 7.31834 5.96421C7.56554 6.58698 7.66447 7.21892 7.39248 7.86253C7.24421 8.21391 7.01835 8.51336 6.77115 8.79308C6.55755 9.03446 6.33942 9.27307 6.10502 9.49196C5.71409 9.85751 5.67249 10.295 5.81702 10.7842C5.98395 11.3489 6.27249 11.8478 6.59515 12.3258C7.17648 13.1875 7.85167 13.9669 8.54767 14.7286C9.14233 15.3791 9.75699 16.008 10.3951 16.6114C11.1092 17.2866 11.8418 17.94 12.6711 18.4613C13.0522 18.7008 13.4479 18.9138 13.8906 19.0036C14.2762 19.0816 14.6135 19.0061 14.8986 18.6911C15.2393 18.3144 15.5812 17.9366 15.9775 17.6188C16.354 17.3172 16.7689 17.1191 17.2497 17.1161C17.6783 17.1133 18.0876 17.2241 18.4681 17.4264C19.5065 17.9783 20.4505 18.6627 21.1876 19.6174C21.5436 20.0786 21.7705 20.5999 21.7404 21.2133C21.7244 21.5383 21.6374 21.8422 21.4972 22.1294C21.331 22.4697 21.1089 22.7699 20.8678 23.0563C20.4569 23.5446 19.9937 23.9783 19.5468 24.428C19.2084 24.7685 18.7759 24.9113 18.3169 24.9741C18.2732 24.9799 18.2303 24.991 18.1868 24.9999C17.8047 24.9999 17.4223 24.9999 17.0401 24.9999C17.0193 24.9924 16.9991 24.9807 16.9775 24.978C15.9065 24.8349 14.8895 24.4919 13.901 24.0555C12.521 23.4458 11.2402 22.6491 10.017 21.7513C9.02446 21.023 8.08847 20.2202 7.19461 19.3652C6.46475 18.6672 5.76876 17.9319 5.10743 17.163C4.3365 16.2664 3.61304 15.3297 2.95651 14.3375C2.34798 13.418 1.78745 12.4697 1.31359 11.4667C0.823727 10.4297 0.409597 9.36391 0.171999 8.23086C0.107466 7.92419 0.0567996 7.61447 0 7.30587C0 6.90781 0 6.50948 0 6.11143Z" fill="white"/>
<path d="M23.9997 13.3332C23.9485 13.5763 23.9432 13.8271 23.856 14.0649C23.6443 14.6435 23.1165 14.9849 22.5184 14.9152C21.9518 14.8491 21.5254 14.4032 21.432 13.8049C21.3859 13.5094 21.4419 13.2232 21.4672 12.9349C21.5176 12.3624 21.4699 11.798 21.3688 11.2374C21.1691 10.1316 20.7451 9.12049 20.1792 8.16661C19.3779 6.81551 18.3545 5.67607 17.1606 4.69886C16.3883 4.06664 15.5508 3.5447 14.6342 3.16998C13.915 2.87609 13.1732 2.68581 12.3972 2.63609C12.0127 2.61137 11.6345 2.63304 11.2561 2.68859C10.5892 2.78637 10.0057 2.45971 9.78494 1.85804C9.51081 1.11166 9.91241 0.31722 10.6777 0.104166C10.8487 0.0563885 11.0257 0.0338887 11.1999 0C11.7153 0 12.2311 0 12.7465 0C12.7849 0.00972215 12.823 0.0241665 12.8622 0.0286109C13.6244 0.114721 14.3678 0.286665 15.0942 0.54333C15.7353 0.769717 16.3547 1.04666 16.947 1.38693C17.9315 1.95221 18.8339 2.63665 19.6619 3.42914C20.3731 4.10997 21.0264 4.84441 21.607 5.64968C22.2416 6.53023 22.7765 7.46939 23.1859 8.48633C23.5432 9.3741 23.7949 10.291 23.9272 11.2441C23.9493 11.4035 23.9472 11.5677 24 11.7221C23.9997 12.2591 23.9997 12.7963 23.9997 13.3332Z" fill="white"/>
<path d="M19.4175 12.2392C19.414 13.1765 18.8639 13.7556 18.0842 13.737C17.6732 13.7273 17.1586 13.4545 16.9548 12.8412C16.9023 12.6831 16.8679 12.5206 16.8386 12.3567C16.5396 10.689 15.6655 9.41592 14.3623 8.43648C13.6797 7.92343 12.9189 7.60843 12.0914 7.46065C11.7061 7.39176 11.3562 7.25343 11.1066 6.91371C10.5111 6.10288 10.9618 4.96039 11.9367 4.80094C12.3159 4.739 12.6687 4.85705 13.025 4.9465C14.2095 5.24372 15.2743 5.80427 16.2343 6.57955C16.8911 7.1101 17.4583 7.73343 17.938 8.44231C18.4935 9.26287 18.9135 10.1529 19.1807 11.1165C19.2935 11.524 19.4092 11.9345 19.4175 12.2392Z" fill="white"/>
</svg>
